<svg width="350" height="578" viewBox="0 0 350 578" fill="none" xmlns="http://www.w3.org/2000/svg">
<path d="M204.953 0C240.449 2.67188 273.922 12.5952 303.891 28.2949C306.121 29.4624 308.328 30.6616 310.516 31.8926C322.602 37.938 335.926 41.8813 350 43.2412V510.271C350 520.095 344.953 526.611 337.461 533.881C308.175 562.299 217.283 555.734 175 577.925C132.717 555.734 41.8255 562.299 12.5391 533.881C5.04681 526.611 0.000167208 520.095 0 510.271V43.2412C14.0742 41.8813 27.3984 37.938 39.4844 31.8926C41.6719 30.6616 43.8789 29.4624 46.1094 28.2949C76.0781 12.5952 109.551 2.67188 145.047 0C147.387 4.26318 150.906 7.3667 155.309 8.54688C162.211 10.3959 169.594 7.0693 175 0.541992C180.406 7.0693 187.789 10.3959 194.691 8.54688C199.094 7.3667 202.613 4.26318 204.953 0Z" fill="white"/>
</svg>
