<svg width="48" height="38" viewBox="0 0 48 38" fill="none" xmlns="http://www.w3.org/2000/svg">
<g clip-path="url(#clip0_37_29)">
<path d="M33.9045 14.7224L33.7791 16.0657C33.4567 19.5761 30.8418 24.7702 28.603 26.3284C28.191 26.6149 27.5104 27.0985 27.0985 27.403C25.7194 28.4239 24.3582 28.2448 23.7493 26.9552C23.5881 26.6149 23.2657 26.1313 23.0328 25.8806C22.4955 25.3075 22.209 24.3045 22.209 22.997C22.209 22.2448 22.1552 22.0119 22.0298 22.209C21.9403 22.3522 21.8507 22.7642 21.8507 23.1224C21.8507 23.5164 21.6537 24.0716 21.3134 24.591L20.7761 25.4328H21.4209C22.2269 25.4328 22.0478 25.7194 21.1343 25.8806C20.597 25.9702 20.1672 26.2567 19.2179 27.206C18.5373 27.8687 17.5522 28.6209 17.0149 28.8896C15.3493 29.7134 13.7552 29.4269 12.9672 28.1731C12.7881 27.9045 12.6269 27.6537 12.609 27.6179C12.5731 27.5642 8.56119 28.5493 7.61194 28.8358C7.32537 28.9433 6.26865 29.2657 5.26567 29.5522C4.26268 29.8567 3.15224 30.2508 2.75821 30.4478C2.00597 30.8418 1.48656 30.8955 1.07462 30.6269C0.931341 30.5373 0.662684 30.5015 0.48358 30.5552C0.0895498 30.6806 -0.0895547 30.2328 0.161192 29.7672C0.304475 29.4985 1.16418 29.1403 3.2597 28.4776C4.87164 27.9582 6.26865 27.5284 6.35821 27.4925C6.46567 27.4746 6.53731 27.0985 6.50149 26.6687C6.48358 26.2388 6.59104 25.4866 6.73433 24.9851C7.09254 23.8746 8.9194 19.3075 9.65373 17.6776L10.209 16.4597L9.70746 16.8C8.86567 17.391 7.16418 17.4985 7.16418 16.9433C7.16418 16.7642 8.9194 15.3134 10.8537 13.9164C11.7493 13.2716 12.5373 13.1642 12.5373 13.7015C12.5373 13.8269 12.6985 14.1313 12.9134 14.4C13.1104 14.6507 13.2358 14.9373 13.1821 15.0269C13.1104 15.1164 13.2358 15.2418 13.4328 15.3134C13.9164 15.4746 13.8985 15.6 13.0746 16.9612C12.6806 17.6239 12 18.8776 11.5522 19.7731C10.7284 21.4567 8.25671 26.9373 8.29254 26.991C8.31045 27.009 9.00895 26.8657 9.85074 26.6687C10.6925 26.4716 11.5522 26.2746 11.7851 26.2388C12.1254 26.1493 12.1791 26.0239 12.1791 25.3254C12.1791 24.8776 12.0716 24.394 11.9284 24.2687C10.9612 23.3015 14.4 16.1373 16.997 13.7015C17.4985 13.2358 17.606 13.2 17.9284 13.4149C18.2507 13.6119 18.3582 13.594 18.6985 13.2896C20.8119 11.3552 23.6418 12.7343 23.6418 15.7075V16.6209L24.1075 16.2448C24.3582 16.0299 24.7881 15.6179 25.0388 15.3134C26.991 13.0925 28.8716 11.7851 30.5194 11.5522C31.1104 11.4627 31.5045 11.5164 32.1313 11.7851C32.5791 12 32.9552 12.2507 32.9552 12.3403C32.9552 12.591 33.6896 12.591 34.3164 12.3582C34.5851 12.2507 33.9045 14.7224 33.9045 14.7224ZM15.9403 27.206L16.3881 26.8478L15.5821 26.9731C14.6507 27.0985 14.6149 27.1343 14.7761 27.3851C14.9552 27.6896 15.4567 27.6179 15.9403 27.206ZM25.7552 27.4209C25.9343 27.3134 25.8627 27.2418 25.4866 27.1702C25.2179 27.1164 24.8239 27.009 24.6269 26.9552C24.3403 26.8478 24.3403 26.9015 24.7164 27.206C25.2 27.6179 25.397 27.6537 25.7552 27.4209ZM18.4836 24.6627C19.0209 23.9284 19.6836 22.8 19.9701 22.1373C20.5791 20.7224 20.9731 20.7761 20.4358 22.209C20.2388 22.7463 20.0955 23.194 20.1134 23.2299C20.2388 23.3373 21.8328 19.8806 22.191 18.7343C23.1403 15.6537 22.2806 12.8955 20.4896 13.3254C19.8448 13.4866 17.4448 15.9224 16.8716 17.0149C16.406 17.8925 16.5672 17.7493 17.7313 16.2269C18.3045 15.4746 18.8955 15.0627 19.0925 15.2776C19.1463 15.3134 18.7343 15.9403 18.197 16.6567C16.2269 19.2716 14.7045 22.5851 14.4 24.8776C14.2746 25.791 14.2925 25.8448 14.6149 25.7194C14.794 25.6478 15.4746 25.5403 16.1015 25.4866C17.1224 25.3791 17.2478 25.4149 17.1403 25.6657C17.0687 25.8627 17.1224 25.9702 17.2657 25.9702C17.391 25.9702 17.9284 25.3791 18.4836 24.6627ZM31.6119 13.3254C31.0746 12.4836 29.6776 12.9134 28.2985 14.3284C27.2597 15.403 25.9881 17.4627 25.7731 18.4119C25.7015 18.7702 25.4328 19.7552 25.1821 20.5791C24.9134 21.403 24.7164 22.4776 24.7164 22.997C24.7164 24.7164 25.7194 25.5761 26.8298 24.7881C27.3851 24.394 28.603 22.5672 29.3194 21.0269C29.6418 20.2925 30 19.7015 30.0896 19.7015C30.4299 19.7015 30.2507 20.5433 29.6418 21.8149C29.3015 22.5313 29.0507 23.1045 29.0866 23.1045C29.1224 23.1045 29.4269 22.6746 29.7672 22.1731C30.9672 20.3105 31.7552 18.2328 31.9881 16.2448L32.1216 15.118C32.1216 15.118 31.9701 13.8806 31.6119 13.3254L31.6119 13.3254Z" fill="black"/>
<path d="M20.6866 37.5224C19.8985 37.397 18.9672 37.2 18.6269 37.0746C18.2866 36.9672 17.5702 36.806 17.0687 36.7164C15.2239 36.4119 13.9702 35.6239 11.6418 33.3313C10.4597 32.1672 9.49255 31.1284 9.49255 31.0209C9.49255 30.9134 9.83285 30.7343 10.2627 30.6269C10.6746 30.5194 11.1582 30.394 11.3373 30.3403C11.5343 30.2687 11.9821 30.5731 12.6806 31.2179C15.797 34.1373 20.0776 35.6239 23.8746 35.1045C26.4537 34.7642 28.6746 33.9045 31.2 32.2925C31.5761 32.0597 31.7373 32.0239 31.8985 32.1851C32.203 32.4896 31.9702 32.7224 30.4657 33.7075C29.7135 34.209 29.2657 34.5493 29.4627 34.4776C29.6597 34.406 30.0717 34.2627 30.3582 34.1731C30.8955 33.9761 32.7761 32.6507 32.7761 32.4358C32.794 32.3821 32.9911 32.0955 33.2239 31.791L33.6537 31.2716L33.8329 31.7015C33.994 32.1313 34.0299 32.1134 35.4448 30.6806C37.8627 28.209 39.2418 25.3254 39.8329 21.4388C40.1373 19.5582 41.7314 15.0448 42.0896 15.0448C42.3403 15.0448 42.6985 18.0358 42.6806 20.1493C42.6806 21.8149 42.5911 22.6209 42.2866 23.7313C41.3552 27.009 39.4388 30.0896 36.7881 32.597C34.9075 34.3522 33.3672 35.3194 30.5373 36.5373C27.9403 37.6478 23.9105 38.0418 20.6866 37.5224Z" fill="#EA3031"/>
<path d="M34.8 27.8149C34.4776 27.7075 34.5134 27.0448 34.8179 27.0448C35.1045 27.0448 35.3552 27.5821 35.1582 27.7612C35.0865 27.8328 34.9074 27.8507 34.8 27.8149Z" fill="#EA3031"/>
<path d="M34.8359 26.1672C34.7821 25.9522 34.7821 25.5403 34.8359 25.2358C34.9254 24.8418 34.8717 24.591 34.6567 24.3582C34.4956 24.1791 34.406 23.9463 34.4597 23.8388C34.5314 23.7493 34.4956 23.606 34.3881 23.5522C34.2806 23.4806 34.2448 23.1761 34.3164 22.8C34.5314 21.6179 35.7851 18.0179 36.6985 15.8687C37.2 14.7045 37.5941 13.7194 37.5582 13.6836C37.5224 13.6478 36.3403 13.9701 34.9075 14.4179C32.0597 15.2955 30.3761 15.4925 30.4836 14.9194C30.5194 14.7403 30.7702 14.5254 31.0747 14.4179C31.6836 14.203 32.3284 13.6119 32.3284 13.2537C32.3284 13.0209 33.6359 12.5194 36.0896 11.803C39.5105 10.8179 39.9762 10.6925 44.7762 9.42089C47.0687 8.81194 48.1254 8.81194 47.6239 9.4388C47.4627 9.6 47.4806 9.74328 47.6239 9.92239C47.8926 10.2448 47.6776 10.406 46.6567 10.6567C46.1373 10.8 45.9403 10.9433 45.9403 11.194C45.9403 11.5343 45.6179 11.6597 41.5702 12.7522L40.0657 13.1642L38.7403 16.6567C38.0239 18.5731 37.0209 21.4388 36.5194 22.997C36.0179 24.5731 35.4627 26.006 35.2836 26.203C34.9612 26.5254 34.9612 26.5254 34.8359 26.1672Z" fill="#EA3031"/>
<path d="M29.2836 15.2239C29.2299 15.1164 29.3015 15.009 29.4448 14.9552C29.606 14.9015 29.8388 14.8299 29.9821 14.794C30.1433 14.7403 30.197 14.8299 30.1433 15.0627C30.0358 15.4209 29.4806 15.5284 29.2836 15.2239Z" fill="#EA3031"/>
<path d="M5.85675 14.1134C6.17914 12.3224 7.71943 9.20597 9.11645 7.45075C12.2508 3.52836 16.7463 0.931345 21.403 0.3403C23.0687 0.125375 27.1165 0.232838 28.6567 0.519405C31.3612 1.03881 34.8359 2.48955 34.8359 3.09851C34.8359 3.2597 35.3553 3.85075 36 4.40597C37.1642 5.40896 37.5582 5.80299 38.9015 7.39702L39.6179 8.23881L39.0269 8.48955C38.6866 8.63284 37.9523 8.82985 37.397 8.95523L36.3582 9.18806L35.3373 8.13134C33.4209 6.14329 30.5553 4.37015 27.9403 3.56418C26.812 3.22388 26.203 3.15224 24.1791 3.13433C22.1194 3.13433 21.5642 3.20597 20.4179 3.56418C18.7344 4.10149 16.8538 5.03284 16.0657 5.73135C15.4567 6.26866 15.0985 6.42985 15.3135 6.08955C15.5642 5.67761 14.9911 5.96418 13.9702 6.73433C12.7523 7.64776 10.9612 9.68955 10.2627 10.9433C9.99406 11.409 9.42093 12.0179 8.97317 12.3403C8.5254 12.6448 7.88063 13.1284 7.55824 13.397C6.60899 14.1851 5.9463 14.6866 5.83884 14.6866C5.78511 14.6866 5.78511 14.4179 5.85675 14.1134Z" fill="#EA3031"/>
</g>
<defs>
<clipPath id="clip0_37_29">
<rect width="48" height="37.9701" fill="white"/>
</clipPath>
</defs>
</svg>
