<svg width="48" height="34" viewBox="0 0 48 34" fill="none" xmlns="http://www.w3.org/2000/svg">
<g clip-path="url(#clip0_37_18)">
<path d="M42.7801 15.6943C38.2376 13.5421 32.8105 15.48 30.6583 20.023C30.3445 20.6858 30.1201 21.3682 29.9755 22.0556L35.2574 24.5586C35.1286 23.8315 35.2136 23.0598 35.5537 22.3417C36.4249 20.5024 38.6222 19.7177 40.4609 20.5892C42.3006 21.4608 43.0855 23.6581 42.2139 25.4973C41.3482 27.3243 39.1744 28.1087 37.3428 27.2648L27.5895 22.6441L27.5912 22.6402L27.5703 22.6309L32.3726 12.4919C34.1545 8.05997 32.1974 2.95205 27.8233 0.880314C23.2808 -1.27231 17.8536 0.665571 15.7016 5.20842C13.5497 9.75047 15.4873 15.1777 20.0297 17.3302C20.6934 17.6449 21.3753 17.869 22.0632 18.014L24.5658 12.7316C23.8388 12.8601 23.0667 12.7751 22.349 12.4353C20.5097 11.5643 19.7253 9.36694 20.5965 7.52765C21.4681 5.68835 23.6654 4.90348 25.5046 5.7751C27.3315 6.64075 28.116 8.81451 27.272 10.6458L22.6891 20.3187L12.4912 15.4884C8.0592 13.7062 2.95128 15.6636 0.879545 20.0377C-1.27262 24.5802 0.664801 30.0074 5.20731 32.1594C9.75016 34.3111 15.177 32.3736 17.3291 27.8308C17.6432 27.1675 17.8677 26.4855 18.0123 25.7976L12.73 23.2952C12.8585 24.0221 12.7738 24.7942 12.4337 25.5119C11.5626 27.3512 9.36525 28.1356 7.52642 27.2644C5.68678 26.3928 4.90237 24.1956 5.77353 22.3563C6.63917 20.5294 8.81293 19.745 10.6446 20.5889L20.3771 25.1998L20.3754 25.2033L25.2567 27.5162L25.2572 27.5153L35.4965 32.3656C39.9283 34.1479 45.0367 32.1899 47.1081 27.8163C49.2603 23.2739 47.3227 17.847 42.7799 15.6945" fill="#00AEEF"/>
</g>
<defs>
<clipPath id="clip0_37_18">
<rect width="48" height="33.0916" fill="white"/>
</clipPath>
</defs>
</svg>
