<svg width="48" height="48" viewBox="0 0 48 48" fill="none" xmlns="http://www.w3.org/2000/svg">
<g clip-path="url(#clip0_37_39)">
<path d="M19.9715 8.17472L31.3178 22.9664V8.1865H36.6302V39.8253L13.1249 8.17472H19.9715Z" fill="black"/>
<path d="M28.0285 39.8253L16.6823 25.0336V39.8135H11.3699V8.17472L34.8751 39.8253H28.0285Z" fill="black"/>
<path fill-rule="evenodd" clip-rule="evenodd" d="M44.6135 24C44.6135 29.467 42.4417 34.7102 38.5759 38.5759C34.7102 42.4417 29.467 44.6135 24 44.6135C18.533 44.6135 13.2898 42.4417 9.42406 38.5759C5.55828 34.7102 3.3865 29.467 3.3865 24C3.3865 18.533 5.55828 13.2898 9.42406 9.42406C13.2898 5.55828 18.533 3.3865 24 3.3865C29.467 3.3865 34.7102 5.55828 38.5759 9.42406C42.4417 13.2898 44.6135 18.533 44.6135 24ZM48 24C48 30.3652 45.4714 36.4697 40.9706 40.9706C36.4697 45.4714 30.3652 48 24 48C17.6348 48 11.5303 45.4714 7.02944 40.9706C2.52856 36.4697 0 30.3652 0 24C0 17.6348 2.52856 11.5303 7.02944 7.02944C11.5303 2.52856 17.6348 0 24 0C30.3652 0 36.4697 2.52856 40.9706 7.02944C45.4714 11.5303 48 17.6348 48 24Z" fill="black"/>
</g>
<defs>
<clipPath id="clip0_37_39">
<rect width="48" height="48" fill="white"/>
</clipPath>
</defs>
</svg>
