<svg width="48" height="34" viewBox="0 0 48 34" fill="none" xmlns="http://www.w3.org/2000/svg">
<g clip-path="url(#clip0_28_343)">
<path d="M25.584 33.3101C19.3906 32.9292 13.509 31.0659 8.80799 27.9955C6.31886 26.3697 4.00396 24.1747 2.59468 22.104C1.04879 19.8325 0.243448 17.6718 0.0453995 15.264C-0.158888 12.781 0.551991 10.1353 2.00663 7.96526C2.54346 7.16428 2.91148 6.71788 3.66158 5.9577C6.65284 2.92622 11.2378 0.90436 16.68 0.216808C18.2305 0.0209681 18.9653 -0.0119119 21.24 0.0130001C23.4382 0.0370961 24.156 0.0874481 25.8539 0.336808C36.5506 1.90751 45.22 7.89282 47.4487 15.2457C47.8165 16.4591 47.9708 17.5127 47.9716 18.816C47.9723 20.0719 47.8348 21.0257 47.4873 22.176C46.4114 25.7363 43.6894 28.6974 39.6195 30.7346C36.9473 32.0721 33.7751 32.9195 30.24 33.2404C29.2418 33.331 26.5729 33.3709 25.584 33.3101ZM28.776 31.1032C36.8653 30.6286 43.0994 27.1312 45.1408 21.9227C45.5783 20.8063 45.7899 19.7497 45.8268 18.4967C45.8682 17.0938 45.7055 15.9741 45.2664 14.64C44.5402 12.4334 43.2856 10.4935 41.3072 8.51831C37.0714 4.28956 30.8031 1.58558 23.712 0.928168C22.6143 0.826408 19.7471 0.8122 18.768 0.903688C16.0249 1.16001 13.7777 1.66838 11.6133 2.52225C10.307 3.03743 9.32063 3.54786 8.18399 4.29671C7.23326 4.92306 6.60892 5.43239 5.80583 6.23673C3.88103 8.16455 2.75975 10.4129 2.46729 12.9308C2.37465 13.728 2.39807 15.0035 2.51932 15.7679C2.86698 17.9599 3.86994 20.1232 5.45682 22.1039C5.98492 22.7631 7.15166 23.9636 7.84799 24.5642C11.8753 28.0379 17.667 30.3571 23.88 30.9839C25.4755 31.1449 27.3052 31.1895 28.776 31.1032ZM25.176 29.4687C17.2105 28.9963 9.95514 25.3875 6.47711 20.1681C5.22767 18.2931 4.58831 16.4019 4.52711 14.4C4.42127 10.9385 6.12287 7.8647 9.31698 5.74727C10.0233 5.27898 10.7582 4.87862 11.568 4.52087C12.2175 4.23398 13.4275 3.7834 13.7114 3.72273C13.8613 3.69071 13.8837 3.71423 15.9865 6.10521C17.1545 7.43337 18.1843 8.59823 18.2749 8.6939L18.4396 8.8678L17.8752 9.13919C16.1405 9.97334 15.1568 11.1204 14.8867 12.624C14.8057 13.0752 14.781 13.488 14.8351 13.488C14.8623 13.488 16.2175 13.075 17.8463 12.5702C19.4752 12.0655 20.8219 11.6496 20.8389 11.6462C20.877 11.6386 26.112 17.557 26.112 17.6078C26.112 17.6279 24.681 18.1387 22.932 18.7429C21.183 19.3472 19.7418 19.8496 19.7294 19.8594C19.6825 19.8963 19.8705 19.9726 20.64 20.2286C23.2242 21.0887 25.9536 21.3348 28.4304 20.931C28.7261 20.8828 28.9843 20.853 29.0043 20.8648C29.0314 20.8806 34.8826 27.4947 35.2644 27.941C35.3234 28.0101 35.2713 28.0387 34.7652 28.2153C31.8722 29.2244 28.4962 29.6656 25.176 29.4687ZM34.8283 23.6114C33.0704 21.6803 31.632 20.0848 31.632 20.0659C31.632 20.047 31.8129 19.8881 32.034 19.7129C32.5491 19.3047 33.177 18.6807 33.4972 18.2589C33.7911 17.8715 34.138 17.185 34.2463 16.776C34.3857 16.2499 34.4018 15.09 34.2726 14.881C34.2397 14.8277 33.6317 15.0222 31.2008 15.8634L28.1699 16.9121L28.0302 16.7721C27.9533 16.695 26.7372 15.4008 25.3278 13.896C23.8354 12.3026 22.7875 11.1472 22.8186 11.1293C22.8479 11.1124 25.8703 10.1438 29.535 8.97686C34.0083 7.55236 36.2351 6.86438 36.311 6.88343C36.4754 6.92471 37.8207 7.83398 38.3624 8.27001C39.7638 9.39796 40.9114 10.6466 41.8345 12.048C43.5961 14.7221 44.198 17.2825 43.6376 19.7174C42.9369 22.7622 41.515 24.8361 38.976 26.5169C38.646 26.7354 38.2969 26.961 38.2003 27.0183L38.0246 27.1224L34.8283 23.6114ZM18.0101 5.74977C15.9933 3.43146 15.7978 3.19199 15.8929 3.15681C16.079 3.08793 17.2831 2.87908 18.048 2.78294C20.5572 2.46767 23.2412 2.55652 26.208 3.05303C28.6659 3.46439 30.6401 4.0594 32.76 5.02761C33.7718 5.4897 33.9706 5.59876 33.8618 5.63193C33.8102 5.64772 31.932 6.23543 29.688 6.93806L25.608 8.21553L25.08 8.15178C24.2843 8.05564 21.8805 8.06922 21.144 8.17406L20.4 8.27994L20.232 8.30394L18.0101 5.74977Z" fill="#030B54"/>
</g>
<defs>
<clipPath id="clip0_28_343">
<rect width="48" height="33.36" fill="white"/>
</clipPath>
</defs>
</svg>
