<svg width="48" height="47" viewBox="0 0 48 47" fill="none" xmlns="http://www.w3.org/2000/svg">
<g clip-path="url(#clip0_19_231)">
<mask id="mask0_19_231" style="mask-type:luminance" maskUnits="userSpaceOnUse" x="-1" y="-1" width="50" height="48">
<path d="M-0.200012 46.9321H48.1882V-0.171605H-0.200012V46.9321Z" fill="white"/>
</mask>
<g mask="url(#mask0_19_231)">
<mask id="mask1_19_231" style="mask-type:luminance" maskUnits="userSpaceOnUse" x="-42039" y="-41056" width="83683" height="83683">
<path d="M-42038.6 -41055.7H41643.1V42626.1H-42038.6V-41055.7Z" fill="white"/>
</mask>
<g mask="url(#mask1_19_231)">
<path d="M47.7473 8.84495C47.9235 8.55254 48.0014 8.2014 47.9618 7.85025C47.9235 7.41993 47.8648 7.08921 47.7869 6.83511C47.6107 6.30775 47.2008 5.8404 46.4014 5.23515C45.7962 4.78568 45.0735 4.33749 44.2933 3.94676C42.83 3.18572 40.566 2.28806 38.205 2.28806H37.8743C36.6446 2.28806 35.2005 1.80029 33.9325 1.37125C33.2494 1.13758 32.6058 0.923052 31.9814 0.765993C31.5128 0.649795 30.6151 0.45443 29.757 0.45443H29.7366C27.2977 0.45443 25.8344 0.883469 24.6635 1.21546C24.3711 1.29335 24.0978 1.3904 23.8245 1.44914C22.4787 1.78113 21.424 1.91776 20.2543 1.91776C17.9904 1.91776 15.3166 1.37125 11.5318 0.122437C11.3556 0.0636997 11.1602 0.0253924 10.9661 0.0253924C10.2051 0.0253924 9.54113 0.473586 9.24872 1.17588C8.56557 2.87416 8.83883 4.96189 9.95101 6.62059C10.1068 6.85426 10.283 7.08921 10.4784 7.30373C5.42439 9.72346 2.82845 13.5274 1.54133 16.4157C0.780301 18.114 0.272094 19.908 0.0780052 21.6459C-0.0982073 23.2459 -0.00116184 24.6504 0.351263 25.5864C0.467461 25.9184 0.702413 26.1917 0.994824 26.3679C0.311681 31.8509 2.22448 36.7478 5.11155 39.3438C5.40396 39.617 5.7947 39.7536 6.20458 39.7536C6.36036 39.7536 6.49699 39.7332 6.63362 39.6949C7.23887 40.7292 7.94117 41.6652 8.74178 42.5041C11.0823 44.8855 14.2248 46.3093 18.127 46.7383H18.3019C18.9264 46.7383 19.4729 46.3871 19.7461 45.8611C21.5031 46.3488 23.3368 46.5634 24.9763 46.5634C32.5279 46.5634 33.7371 42.3675 33.9134 41.2949C32.7028 41.7239 31.5128 41.6064 30.8692 41.5681C30.0686 41.5094 28.9564 41.0803 28.3129 40.6896C27.3169 40.0844 24.9367 38.0949 24.9955 34.4264C25.0734 28.9434 30.1465 27.6167 31.8831 27.7137C33.483 27.7916 34.9859 28.2411 36.2156 29.2358C36.2348 29.255 36.2539 29.2754 36.2743 29.2945L36.3318 29.3533C37.3278 30.1335 38.5766 30.5625 39.8254 30.5625C40.8597 30.5625 41.8736 30.2892 42.7521 29.7427C44.4491 28.7084 45.4834 26.894 45.4834 24.9045C45.4834 24.4168 45.4259 23.9673 45.3276 23.5191C45.3276 23.4987 45.3084 23.4795 45.3084 23.4399C45.1718 22.8947 44.9368 22.3865 44.6061 21.8604C44.3329 20.5912 44.02 19.6744 43.2207 18.543C43.1428 18.4255 43.0253 18.3081 42.9078 18.211H42.9474C43.162 18.211 43.3765 18.1714 43.591 18.0936C45.3672 17.3721 45.9916 15.7134 46.2444 14.8553L46.3031 14.8157C46.381 14.7187 46.8688 14.0547 47.1229 13.5274L47.1625 13.4495C47.2199 13.3333 47.2595 13.2349 47.2991 13.1379C47.6298 12.299 47.8648 11.4013 47.981 10.4845C48.0206 9.91755 47.9427 9.35188 47.7473 8.84495Z" fill="white"/>
<path d="M45.5511 8.55121C44.79 8.08259 44.126 7.43903 43.7749 6.91167C43.7174 6.81462 43.8336 6.69715 43.9319 6.75589C44.5563 7.12619 45.5906 7.75059 46.3121 8.04428C46.3517 8.06344 46.4091 8.02385 46.4091 7.98554C46.39 7.69313 46.3517 7.45818 46.2929 7.32156C46.0784 6.65884 41.8238 3.78965 38.039 3.86754C35.8147 3.92627 33.3745 2.7362 31.5996 2.30716C31.1502 2.18969 30.3891 2.05306 29.7456 2.0339C26.9159 2.0339 25.5701 2.65831 24.2038 2.9903C20.9643 3.78965 17.901 3.88797 11.053 1.62402C10.9355 1.58571 10.7797 1.64317 10.7402 1.76065C9.64713 4.47279 12.1064 8.49247 16.204 7.6344C16.2628 7.61396 16.3011 7.69313 16.2423 7.73144C15.54 8.29711 14.0384 8.47332 13.1011 8.20006C12.9262 8.14133 12.7308 8.12217 12.5355 8.14133C2.29089 12.1023 0.808412 22.4835 1.86186 25.059C2.50542 22.7376 3.52055 21.4888 4.43737 20.5707C0.690935 27.9078 2.7991 35.264 6.31058 38.2494C5.76407 36.5332 5.74491 34.7379 6.11522 33.235C7.20824 39.9081 11.1105 44.4155 18.4667 45.1574C16.8872 44.4551 15.775 42.8552 15.4034 41.7813C18.5254 45.1766 28.0869 46.2109 30.8386 43.1667C29.6868 43.108 28.2631 42.5232 27.4625 42.0546C25.2573 40.7087 23.4045 38.1715 23.3061 34.6587C23.2474 32.4931 24.1655 30.0351 26.3503 28.0635C21.8428 28.9229 15.0523 25.156 15.5605 17.8981C16.0482 26.2491 23.6777 28.3764 28.4189 26.8543C29.4723 26.4049 30.6241 26.1316 31.8333 26.1316C33.8623 26.1316 35.7164 26.8352 37.1797 28.0061C37.2193 28.0444 37.2576 28.0635 37.2972 28.1031C37.9803 28.6496 38.8575 28.9816 39.8139 28.9816C40.5954 28.9816 41.2977 28.7658 41.9221 28.3955C43.093 27.6741 43.8732 26.3857 43.8732 24.9224C43.8732 24.5521 43.8336 24.2201 43.7557 23.9072V23.8689C43.6191 23.362 43.3854 22.9317 43.093 22.5218C42.8389 21.2347 42.6052 20.4928 41.9017 19.4789C41.8442 19.3998 41.7459 19.4394 41.7267 19.5364C41.7076 19.9667 41.668 20.3562 41.5901 20.7073C41.5314 21.0202 41.4343 21.5462 41.336 21.9561C41.1611 22.601 41.8046 22.601 42.1162 22.6393C42.0383 22.8538 41.1611 22.8155 41.1215 22.6584V22.6393C41.1215 22.5614 41.1023 22.4247 41.0832 22.2498C40.9849 21.2934 40.6733 20.1608 39.7948 19.4202C39.7169 19.3423 39.5803 19.4394 39.5803 19.5951C39.4628 20.7852 39.1704 22.1132 38.8192 22.8538V22.8934C37.6675 22.6789 36.2041 22.1132 34.6438 21.937C31.9508 21.6446 30.5845 21.3317 30.4479 19.8097C30.4479 19.7509 30.5257 19.7318 30.5462 19.7905C30.9356 20.5515 31.3072 21.2347 33.5316 21.5858C33.6095 21.605 33.6478 21.4888 33.5699 21.4492C31.8729 20.4736 31.9508 19.7713 32.0478 18.5034C32.0478 18.4242 32.0682 18.3668 32.0874 18.308C32.4769 16.2586 34.1164 14.8732 35.2873 14.1709C35.3461 14.1313 35.3269 14.0342 35.2477 14.0342C33.6095 14.2296 32.0095 14.951 30.8577 16.7272C30.9752 16.3761 31.1502 16.0045 31.3851 15.6533C33.3554 12.6296 37.1018 13.254 39.7948 13.7227C39.9506 14.522 39.9123 15.6738 39.736 16.7272C39.7169 16.8638 39.8344 16.9813 39.9506 16.9417C41.4343 16.3569 42.097 15.0685 42.429 14.0738C42.7214 14.1313 43.2871 14.2104 43.8541 14.19C43.8732 14.19 43.8732 14.2104 43.8541 14.2104C43.365 14.2679 42.9168 14.2883 42.8581 14.2679C42.8389 14.2679 42.8198 14.3075 42.8389 14.3266C42.9755 14.854 42.9564 15.7517 42.8389 16.5318C42.8198 16.6289 42.8977 16.7081 42.9755 16.6685C44.4389 16.0632 44.693 14.4045 44.8296 13.9755C44.8871 13.9563 44.9266 13.9168 44.9662 13.8976C44.9662 13.8976 44.9854 13.8976 44.9854 13.9168C44.9854 13.8976 45.0045 13.8976 45.0045 13.8784C45.0824 13.7801 45.454 13.254 45.6289 12.9029C45.6289 12.9029 45.6289 12.8825 45.6481 12.8825C45.6481 12.8633 45.6685 12.8442 45.6685 12.825C45.7068 12.7471 45.7273 12.6884 45.7656 12.6105C46.0784 11.8494 46.2533 11.068 46.3517 10.3274C46.4679 9.5855 46.1359 8.92151 45.5511 8.55121ZM29.2769 5.56582C29.102 5.11635 29.102 4.66815 29.3753 4.31701C29.5502 4.08333 29.1799 3.81008 28.4776 4.0629C28.6525 3.92627 28.8671 3.84838 29.102 3.81007C29.3165 3.77049 29.5502 3.78965 29.7851 3.82923C30.2333 3.90712 30.6624 4.0629 31.0135 4.33616C31.3264 4.53152 31.6379 4.78563 32.0095 5.00015C31.9891 5.31171 31.892 5.62455 31.6967 5.9757C30.9165 5.7216 30.2142 5.46877 29.2769 5.56582ZM31.9316 6.05359C32.2049 5.87738 32.4385 5.62455 32.6135 5.29256C32.6339 5.29256 32.6722 5.31171 32.6927 5.31171C32.8293 5.35129 32.9659 5.3896 33.1217 5.42919C33.2583 5.44834 33.4141 5.46877 33.5507 5.46877C33.6874 5.46877 33.8431 5.44834 33.9989 5.44834C33.6682 5.64371 32.8867 6.3077 31.9316 6.05359Z" fill="black"/>
</g>
</g>
</g>
<defs>
<clipPath id="clip0_19_231">
<rect width="48" height="46.714" fill="white"/>
</clipPath>
</defs>
</svg>
