<svg width="48" height="56" viewBox="0 0 48 56" fill="none" xmlns="http://www.w3.org/2000/svg">
<g clip-path="url(#clip0_37_8)">
<path d="M20.8696 53.4259C14.8638 48.8578 10.3885 44.5679 6.16819 39.281C3.75661 36.2665 -0.0230821 30.7013 0.000106191 30.1912C0.000106191 30.0984 0.811697 29.4491 1.76242 28.7535C5.05516 26.3651 6.65515 24.1854 7.46674 21.055L7.93051 19.1535L7.28123 18.713C6.28414 18.0173 3.24647 14.8869 3.24647 14.5391C3.24647 14.3304 4.15081 14.1217 6.14501 13.8434C7.72181 13.6115 9.69282 13.2173 10.4812 12.9159L11.9421 12.4057L11.9653 10.3188C11.9885 6.95649 13.0319 4.17389 15.0261 2.04057C15.9305 1.06666 17.4841 0 17.9479 0C18.0174 0 18.3884 0.602896 18.7594 1.32173C19.8261 3.43187 20.7768 4.5681 22.0754 5.33331C23.629 6.21447 24.371 6.21447 25.9246 5.33331C27.2232 4.5681 28.1739 3.43187 29.2406 1.34492C29.6116 0.602896 29.9826 0 30.0521 0C30.5159 0 32.0695 1.06666 32.9739 2.04057C34.9681 4.17389 36.0115 6.95649 36.0347 10.3188L36.0579 12.4057L37.5188 12.9159C38.3072 13.2173 40.2782 13.6115 41.855 13.8434C43.8492 14.1217 44.7535 14.3304 44.7535 14.5391C44.7535 14.8869 41.7159 18.0173 40.7188 18.713L40.0695 19.1535L40.5333 21.055C41.3449 24.1854 42.9448 26.3651 46.2376 28.7535C47.1883 29.4491 47.9999 30.0984 47.9999 30.1912C48.0231 30.7013 44.2434 36.2665 41.8318 39.281C37.542 44.6375 33.2058 48.8114 27.3159 53.2635C25.5536 54.5621 24.0464 55.6519 23.9536 55.6287C23.8609 55.6287 22.4696 54.6316 20.8696 53.4259ZM23.1884 51.478C23.9072 50.8983 24.0232 50.8983 24.8348 51.5012L25.5072 51.9882L27.1072 50.8056C28.7536 49.5766 29.4261 48.9273 29.0782 48.9273C28.9623 48.9041 28.5681 48.6491 28.1739 48.3476L27.4782 47.7679L30.1449 45.2636L32.7884 42.7592L32.4174 41.4375C32.2318 40.7187 32.1391 40.1158 32.2318 40.1158C32.3478 40.1158 33.0202 40.9274 33.7623 41.9013L35.1072 43.6868L36.5913 42.0636C38.7941 39.652 41.8086 35.8723 43.5941 33.252L45.1709 30.9332L43.4782 29.6115C42.5506 28.8926 41.4144 27.8492 40.9507 27.2926C39.4666 25.4839 38.0289 21.7274 38.0289 19.6637C38.0289 19.1767 38.0057 18.7825 37.9594 18.7825C37.913 18.7825 37.4028 18.9448 36.8231 19.1304L35.7797 19.5014L35.6405 24.4173C35.5478 28.2897 35.4086 29.7042 35.0376 31.1187C34.1797 34.4578 31.8608 38.3071 28.9623 41.2752C27.2464 43.0375 24.2783 45.1013 23.7449 44.8926C22.9101 44.5679 20.4522 42.7129 19.2232 41.4607C17.1826 39.3737 15.629 37.2172 14.3769 34.6665C12.7769 31.4202 12.545 30.1912 12.3595 24.4173L12.2203 19.5246L11.2696 19.1535C10.7363 18.9448 10.2493 18.7825 10.1798 18.7825C10.087 18.7825 9.97108 19.4318 9.90151 20.2202C9.71601 22.6318 8.55659 25.4608 7.02616 27.3158C6.58558 27.8723 5.44936 28.8926 4.52183 29.6347L2.80589 30.9332L4.33632 33.1593C6.9566 36.939 12.4522 43.594 12.9624 43.594C13.0551 43.594 13.287 43.2926 13.5189 42.9216C13.9827 42.1331 15.5131 40.2549 15.7682 40.1621C15.8609 40.1158 15.7913 40.6723 15.5826 41.3911L15.2116 42.6897L16.4174 43.8955C17.0667 44.5679 18.2261 45.6346 18.9913 46.2607C19.7565 46.9099 20.3826 47.536 20.3826 47.6752C20.4058 47.8143 20.0348 48.1853 19.571 48.5099L18.7594 49.1128L19.7565 49.9012C21.4261 51.223 22.3768 51.9418 22.4928 51.9418C22.5623 51.9418 22.8638 51.7331 23.1884 51.478ZM28.4058 40.3245C29.171 39.5129 30.1913 38.3303 30.655 37.681C31.5362 36.452 33.2521 33.1593 33.0202 33.1593C32.9507 33.1593 32.1623 33.368 31.2811 33.6462C29.8435 34.0868 29.6116 34.2259 29.1014 35.1071C28.7768 35.6404 28.2666 36.3361 27.942 36.6375L27.3623 37.1709V35.2926C27.3623 33.4143 27.3623 33.3912 28.0116 33.2752C29.5652 32.9506 32.2782 32.2086 33.0202 31.9071C33.7159 31.6288 33.8318 31.4202 34.0869 30.3303C34.5043 28.3825 34.7826 25.3912 34.7826 22.539C34.7826 19.4782 35.0608 19.6173 31.8376 21.1014C29.3797 22.2376 28.0811 23.1419 26.0406 25.1361C24.3478 26.7361 24.3478 26.7361 24.3478 27.9883V29.2405L25.229 29.1013C26.9913 28.7999 27.5942 28.5216 27.5942 27.9883C27.5942 27.6405 27.9652 27.1999 28.684 26.6666C29.4493 26.11 30.0753 25.3448 30.7014 24.1854C31.2116 23.2579 31.6753 22.539 31.6985 22.5854C31.7449 22.6318 31.6058 23.0956 31.4203 23.6521C30.9565 24.9738 30.9797 25.0666 31.6521 24.9042C32.2087 24.7651 32.2318 24.8115 32.0927 25.5303C31.7913 27.0376 31.3275 27.8028 30.1913 28.6144C29.542 29.1013 28.8 29.8897 28.4522 30.539C27.7797 31.7448 26.7826 33.0433 26.9681 32.4636C27.0377 32.2781 27.3159 31.5593 27.571 30.8636L28.0811 29.6115L27.4087 29.7506C27.0377 29.8202 26.2029 29.9593 25.5304 30.052L24.3478 30.2144V43.6172L25.6927 42.7129C26.4116 42.2027 27.6406 41.1361 28.4058 40.3245ZM23.6522 36.7998V30.2144L21.8667 29.8202C20.8696 29.6115 19.4551 29.1941 18.7363 28.8926L17.3913 28.3361L17.5073 28.8463C17.9015 30.7709 18.1797 31.9303 18.3189 32.2086C18.4116 32.3941 18.9449 32.7187 19.5015 32.9506L20.5218 33.3448L20.5913 35.2462C20.6377 36.3593 20.5681 37.0781 20.4522 37.0085C19.8725 36.6607 18.0174 33.5535 17.5073 32.0926C16.9508 30.4694 16.2087 24.997 16.5102 24.6724C16.858 24.3245 20.4058 27.1999 20.4058 27.826C20.4058 28.0578 20.5449 28.3361 20.7073 28.4752C20.916 28.6607 23.0725 29.2173 23.5362 29.2173C23.6058 29.2173 23.6522 28.6376 23.6522 27.9187C23.6522 26.6666 23.629 26.597 22.3304 25.2984C20.2667 23.2579 16.9739 21.2405 13.8203 20.0811C13.4029 19.9419 13.3798 20.0811 13.5189 24.51C13.6116 28.0347 13.7508 29.5187 14.1218 30.8636C15.1884 34.9448 18.3421 39.6288 21.7275 42.1795C22.6087 42.8288 23.3739 43.3621 23.4899 43.3621C23.5826 43.3621 23.6522 40.4172 23.6522 36.7998ZM28.1739 21.8434C29.9826 20.6376 31.6753 19.826 35.3623 18.3419C37.0318 17.6927 38.9565 16.8115 39.6521 16.4173L40.9275 15.6753L39.4666 15.4898C37.6811 15.2811 35.6173 14.7246 34.6434 14.1449L33.9014 13.7275L33.0434 14.9796C32.1623 16.255 29.8203 18.5506 28.9391 19.0376C28.313 19.3622 28.4985 19.084 30.029 17.2753C31.5826 15.4434 32.3246 14.1217 33.0666 11.9188C33.5768 10.4115 33.6463 9.83184 33.5304 8.62605C33.3913 7.04924 32.4637 4.68404 31.7217 4.01158C31.2811 3.61738 31.2579 3.64056 30.655 4.40578C30.3072 4.84636 29.7971 5.44925 29.4956 5.70432L28.9623 6.21447L29.4261 6.97968C30.029 8.04634 30.2145 9.08982 30.029 10.3884C29.7971 12.0811 29.6811 12.1739 28.5681 11.6173C28.058 11.3623 26.8522 10.5275 25.8783 9.73909C24.9043 8.97387 24.0696 8.34779 24 8.34779C23.9304 8.34779 23.0957 8.97387 22.1217 9.73909C20.6377 10.9217 18.8522 12.0579 18.458 12.0579C18.4116 12.0579 18.2493 11.5246 18.087 10.8985C17.7392 9.48402 17.9247 8.02315 18.5739 6.97968L19.0377 6.21447L17.9479 5.03186C17.345 4.3594 16.8116 3.77969 16.7653 3.73332C16.6261 3.52462 15.9305 4.33621 15.4203 5.3565C14.5855 6.97968 14.2609 9.113 14.5855 10.713C15.0029 12.6608 16.4638 15.4434 18.087 17.3449C18.8754 18.2956 19.4783 19.1072 19.4087 19.1535C19.0609 19.5014 15.1653 15.6057 14.3769 14.1449C14.145 13.7043 14.1218 13.7043 13.3798 14.1449C12.4058 14.7246 10.3421 15.2811 8.5334 15.4898L7.07254 15.6753L8.3479 16.4173C9.04354 16.8115 10.9682 17.6927 12.6377 18.3419C18.087 20.5216 20.4986 21.9361 22.8406 24.3245L23.9768 25.5071L25.3913 24.139C26.1565 23.397 27.4087 22.3535 28.1739 21.8434Z" fill="white"/>
<path d="M23.1884 51.478C23.9072 50.8983 24.0232 50.8983 24.8348 51.5012L25.5072 51.9882L27.1072 50.8056C28.7536 49.5766 29.4261 48.9273 29.0782 48.9273C28.9623 48.9041 28.5681 48.6491 28.1739 48.3476L27.4782 47.7679L30.1449 45.2636L32.7884 42.7592L32.4174 41.4375C32.2318 40.7187 32.1391 40.1158 32.2318 40.1158C32.3478 40.1158 33.0202 40.9274 33.7623 41.9013L35.1072 43.6868L36.5913 42.0636C38.7941 39.652 41.8086 35.8723 43.5941 33.252L45.1709 30.9332L43.4782 29.6115C42.5506 28.8926 41.4144 27.8492 40.9507 27.2926C39.4666 25.4839 38.0289 21.7274 38.0289 19.6637C38.0289 19.1767 38.0057 18.7825 37.9594 18.7825C37.913 18.7825 37.4028 18.9448 36.8231 19.1304L35.7797 19.5014L35.6405 24.4173C35.5478 28.2897 35.4086 29.7042 35.0376 31.1187C34.1797 34.4578 31.8608 38.3071 28.9623 41.2752C27.2464 43.0375 24.2783 45.1013 23.7449 44.8926C22.9101 44.5679 20.4522 42.7129 19.2232 41.4607C17.1826 39.3737 15.629 37.2172 14.3769 34.6665C12.7769 31.4202 12.545 30.1912 12.3595 24.4173L12.2203 19.5246L11.2696 19.1535C10.7363 18.9448 10.2493 18.7825 10.1798 18.7825C10.087 18.7825 9.97108 19.4318 9.90151 20.2202C9.71601 22.6318 8.55659 25.4608 7.02616 27.3158C6.58558 27.8723 5.44936 28.8926 4.52183 29.6347L2.80589 30.9332L4.33632 33.1593C6.9566 36.939 12.4522 43.594 12.9624 43.594C13.0551 43.594 13.287 43.2926 13.5189 42.9216C13.9827 42.1331 15.5131 40.2549 15.7682 40.1621C15.8609 40.1158 15.7913 40.6723 15.5826 41.3911L15.2116 42.6897L16.4174 43.8955C17.0667 44.5679 18.2261 45.6346 18.9913 46.2607C19.7565 46.9099 20.3826 47.536 20.3826 47.6752C20.4058 47.8143 20.0348 48.1853 19.571 48.5099L18.7594 49.1128L19.7565 49.9012C21.4261 51.223 22.3768 51.9418 22.4928 51.9418C22.5623 51.9418 22.8638 51.7331 23.1884 51.478Z" fill="white"/>
<path d="M23.6522 36.7998V30.2144L21.8667 29.8202C20.8696 29.6115 19.4551 29.1941 18.7363 28.8926L17.3913 28.3361L17.5073 28.8463C17.9015 30.7709 18.1797 31.9303 18.3189 32.2086C18.4116 32.3941 18.9449 32.7187 19.5015 32.9506L20.5218 33.3448L20.5913 35.2462C20.6377 36.3593 20.5681 37.0781 20.4522 37.0085C19.8725 36.6607 18.0174 33.5535 17.5073 32.0926C16.9508 30.4694 16.2087 24.997 16.5102 24.6724C16.858 24.3245 20.4058 27.1999 20.4058 27.826C20.4058 28.0578 20.5449 28.3361 20.7073 28.4752C20.916 28.6607 23.0725 29.2173 23.5362 29.2173C23.6058 29.2173 23.6522 28.6376 23.6522 27.9187C23.6522 26.6666 23.629 26.597 22.3304 25.2984C20.2667 23.2579 16.9739 21.2405 13.8203 20.0811C13.4029 19.9419 13.3798 20.0811 13.5189 24.51C13.6116 28.0347 13.7508 29.5187 14.1218 30.8636C15.1884 34.9448 18.3421 39.6288 21.7275 42.1795C22.6087 42.8288 23.3739 43.3621 23.4899 43.3621C23.5826 43.3621 23.6522 40.4172 23.6522 36.7998Z" fill="white"/>
<path d="M28.1739 21.8434C29.9826 20.6376 31.6753 19.826 35.3623 18.3419C37.0318 17.6927 38.9565 16.8115 39.6521 16.4173L40.9275 15.6753L39.4666 15.4898C37.6811 15.2811 35.6173 14.7246 34.6434 14.1449L33.9014 13.7275L33.0434 14.9796C32.1623 16.255 29.8203 18.5506 28.9391 19.0376C28.313 19.3622 28.4985 19.084 30.029 17.2753C31.5826 15.4434 32.3246 14.1217 33.0666 11.9188C33.5768 10.4115 33.6463 9.83184 33.5304 8.62605C33.3913 7.04924 32.4637 4.68404 31.7217 4.01158C31.2811 3.61738 31.2579 3.64056 30.655 4.40578C30.3072 4.84636 29.7971 5.44925 29.4956 5.70432L28.9623 6.21447L29.4261 6.97968C30.029 8.04634 30.2145 9.08982 30.029 10.3884C29.7971 12.0811 29.6811 12.1739 28.5681 11.6173C28.058 11.3623 26.8522 10.5275 25.8783 9.73909C24.9043 8.97387 24.0696 8.34779 24 8.34779C23.9304 8.34779 23.0957 8.97387 22.1217 9.73909C20.6377 10.9217 18.8522 12.0579 18.458 12.0579C18.4116 12.0579 18.2493 11.5246 18.087 10.8985C17.7392 9.48402 17.9247 8.02315 18.5739 6.97968L19.0377 6.21447L17.9479 5.03186C17.345 4.3594 16.8116 3.77969 16.7653 3.73332C16.6261 3.52462 15.9305 4.33621 15.4203 5.3565C14.5855 6.97968 14.2609 9.113 14.5855 10.713C15.0029 12.6608 16.4638 15.4434 18.087 17.3449C18.8754 18.2956 19.4783 19.1072 19.4087 19.1535C19.0609 19.5014 15.1653 15.6057 14.3769 14.1449C14.145 13.7043 14.1218 13.7043 13.3798 14.1449C12.4058 14.7246 10.3421 15.2811 8.5334 15.4898L7.07254 15.6753L8.3479 16.4173C9.04354 16.8115 10.9682 17.6927 12.6377 18.3419C18.087 20.5216 20.4986 21.9361 22.8406 24.3245L23.9768 25.5071L25.3913 24.139C26.1565 23.397 27.4087 22.3535 28.1739 21.8434Z" fill="white"/>
<path d="M28.4058 40.3245C29.171 39.5129 30.1913 38.3303 30.655 37.681C31.5362 36.452 33.2521 33.1593 33.0202 33.1593C32.9507 33.1593 32.1623 33.368 31.2811 33.6462C29.8435 34.0868 29.6116 34.2259 29.1014 35.1071C28.7768 35.6404 28.2666 36.3361 27.942 36.6375L27.3623 37.1709V35.2926C27.3623 33.4143 27.3623 33.3912 28.0116 33.2752C29.5652 32.9506 32.2782 32.2086 33.0202 31.9071C33.7159 31.6288 33.8318 31.4202 34.0869 30.3303C34.5043 28.3825 34.7826 25.3912 34.7826 22.539C34.7826 19.4782 35.0608 19.6173 31.8376 21.1014C29.3797 22.2376 28.0811 23.1419 26.0406 25.1361C24.3478 26.7361 24.3478 26.7361 24.3478 27.9883V29.2405L25.229 29.1013C26.9913 28.7999 27.5942 28.5216 27.5942 27.9883C27.5942 27.6405 27.9652 27.1999 28.684 26.6666C29.4493 26.11 30.0753 25.3448 30.7014 24.1854C31.2116 23.2579 31.6753 22.539 31.6985 22.5854C31.7449 22.6318 31.6058 23.0956 31.4203 23.6521C30.9565 24.9738 30.9797 25.0666 31.6521 24.9042C32.2087 24.7651 32.2318 24.8115 32.0927 25.5303C31.7913 27.0376 31.3275 27.8028 30.1913 28.6144C29.542 29.1013 28.8 29.8897 28.4522 30.539C27.7797 31.7448 26.7826 33.0433 26.9681 32.4636C27.0377 32.2781 27.3159 31.5593 27.571 30.8636L28.0811 29.6115L27.4087 29.7506C27.0377 29.8202 26.2029 29.9593 25.5304 30.052L24.3478 30.2144V43.6172L25.6927 42.7129C26.4116 42.2027 27.6406 41.1361 28.4058 40.3245Z" fill="white"/>
<path d="M20.8696 53.4258C14.8638 48.8578 10.3885 44.5679 6.16819 39.281C3.75661 36.2665 -0.0230821 30.7013 0.000106191 30.1912C0.000106191 30.0984 0.811697 29.4491 1.76242 28.7535C5.05516 26.3651 6.65515 24.1854 7.46674 21.055L7.93051 19.1535L7.28123 18.713C6.28414 18.0173 3.24647 14.8869 3.24647 14.5391C3.24647 14.3304 4.15081 14.1217 6.14501 13.8434C7.72181 13.6115 9.69282 13.2173 10.4812 12.9159L11.9421 12.4057L11.9653 10.3188C11.9885 6.95649 13.0319 4.17389 15.0261 2.04057C15.9305 1.06666 17.4841 0 17.9479 0C18.0174 0 18.3884 0.602896 18.7594 1.32173C19.8261 3.43187 20.7768 4.5681 22.0754 5.33331C23.629 6.21446 24.371 6.21446 25.9246 5.33331C27.2232 4.5681 28.1739 3.43187 29.2406 1.34492C29.6116 0.602896 29.9826 0 30.0521 0C30.5159 0 32.0695 1.06666 32.9739 2.04057C34.9681 4.17389 36.0115 6.95649 36.0347 10.3188L36.0579 12.4057L37.5188 12.9159C38.3072 13.2173 40.2782 13.6115 41.855 13.8434C43.8492 14.1217 44.7535 14.3304 44.7535 14.5391C44.7535 14.8869 41.7159 18.0173 40.7188 18.713L40.0695 19.1535L40.5333 21.055C41.3449 24.1854 42.9448 26.3651 46.2376 28.7535C47.1883 29.4491 47.9999 30.0984 47.9999 30.1912C48.0231 30.7013 44.2434 36.2665 41.8318 39.281C37.542 44.6375 33.2058 48.8114 27.3159 53.2635C25.5536 54.5621 24.0464 55.6519 23.9536 55.6287C23.8609 55.6287 22.4696 54.6316 20.8696 53.4258ZM23.1884 51.478C23.9072 50.8983 24.0232 50.8983 24.8348 51.5012L25.5072 51.9882L27.1072 50.8056C28.7536 49.5766 29.4261 48.9273 29.0782 48.9273C28.9623 48.9041 28.5681 48.6491 28.1739 48.3476L27.4782 47.7679L30.1449 45.2636L32.7884 42.7592L32.4174 41.4375C32.2318 40.7187 32.1391 40.1158 32.2318 40.1158C32.3478 40.1158 33.0203 40.9274 33.7623 41.9013L35.1072 43.6868L36.5912 42.0636C38.7941 39.652 41.8086 35.8723 43.5941 33.252L45.1709 30.9332L43.4782 29.6115C42.5506 28.8926 41.4144 27.8491 40.9507 27.2926C39.4666 25.4839 38.0289 21.7274 38.0289 19.6637C38.0289 19.1767 38.0057 18.7825 37.9594 18.7825C37.913 18.7825 37.4028 18.9448 36.8231 19.1303L35.7797 19.5014L35.6405 24.4173C35.5478 28.2897 35.4086 29.7042 35.0376 31.1187C34.1797 34.4578 31.8608 38.3071 28.9623 41.2752C27.2464 43.0375 24.2783 45.1012 23.7449 44.8926C22.9102 44.5679 20.4522 42.7129 19.2232 41.4607C17.1826 39.3737 15.629 37.2172 14.3769 34.6665C12.7769 31.4201 12.545 30.1912 12.3595 24.4173L12.2203 19.5245L11.2696 19.1535C10.7363 18.9448 10.2493 18.7825 10.1798 18.7825C10.087 18.7825 9.97108 19.4318 9.90151 20.2202C9.71601 22.6318 8.55659 25.4608 7.02616 27.3158C6.58558 27.8723 5.44936 28.8926 4.52183 29.6347L2.80589 30.9332L4.33632 33.1593C6.9566 36.939 12.4522 43.594 12.9624 43.594C13.0551 43.594 13.287 43.2926 13.5189 42.9215C13.9827 42.1331 15.5131 40.2549 15.7682 40.1621C15.8609 40.1158 15.7913 40.6723 15.5826 41.3911L15.2116 42.6897L16.4174 43.8955C17.0667 44.5679 18.2261 45.6346 18.9913 46.2607C19.7565 46.9099 20.3826 47.536 20.3826 47.6752C20.4058 47.8143 20.0348 48.1853 19.571 48.5099L18.7594 49.1128L19.7565 49.9012C21.4261 51.223 22.3768 51.9418 22.4928 51.9418C22.5623 51.9418 22.8638 51.7331 23.1884 51.478ZM28.4058 40.3245C29.171 39.5129 30.1913 38.3303 30.655 37.681C31.5362 36.452 33.2521 33.1593 33.0202 33.1593C32.9507 33.1593 32.1623 33.368 31.2811 33.6462C29.8435 34.0868 29.6116 34.2259 29.1014 35.1071C28.7768 35.6404 28.2666 36.3361 27.942 36.6375L27.3623 37.1708V35.2926C27.3623 33.4143 27.3623 33.3912 28.0116 33.2752C29.5652 32.9506 32.2782 32.2086 33.0202 31.9071C33.7159 31.6288 33.8318 31.4201 34.0869 30.3303C34.5043 28.3825 34.7826 25.3912 34.7826 22.539C34.7826 19.4782 35.0608 19.6173 31.8376 21.1014C29.3797 22.2376 28.0811 23.1419 26.0406 25.1361C24.3478 26.7361 24.3478 26.7361 24.3478 27.9883V29.2404L25.229 29.1013C26.9913 28.7999 27.5942 28.5216 27.5942 27.9883C27.5942 27.6405 27.9652 27.1999 28.684 26.6665C29.4493 26.11 30.0753 25.3448 30.7014 24.1854C31.2116 23.2579 31.6753 22.539 31.6985 22.5854C31.7449 22.6318 31.6058 23.0955 31.4203 23.6521C30.9565 24.9738 30.9797 25.0666 31.6521 24.9042C32.2087 24.7651 32.2318 24.8115 32.0927 25.5303C31.7913 27.0376 31.3275 27.8028 30.1913 28.6144C29.542 29.1013 28.8 29.8897 28.4522 30.539C27.7797 31.7448 26.7826 33.0433 26.9681 32.4636C27.0377 32.2781 27.3159 31.5593 27.571 30.8636L28.0811 29.6115L27.4087 29.7506C27.0377 29.8202 26.2029 29.9593 25.5304 30.052L24.3478 30.2144V43.6172L25.6927 42.7129C26.4116 42.2027 27.6406 41.136 28.4058 40.3245ZM23.6522 36.7998V30.2144L21.8667 29.8202C20.8696 29.6115 19.4551 29.1941 18.7363 28.8926L17.3913 28.3361L17.5073 28.8462C17.9015 30.7709 18.1797 31.9303 18.3189 32.2085C18.4116 32.3941 18.9449 32.7187 19.5015 32.9506L20.5218 33.3448L20.5913 35.2462C20.6377 36.3593 20.5681 37.0781 20.4522 37.0085C19.8725 36.6607 18.0174 33.5535 17.5073 32.0926C16.9508 30.4694 16.2087 24.997 16.5102 24.6724C16.858 24.3245 20.4058 27.1999 20.4058 27.826C20.4058 28.0578 20.5449 28.3361 20.7073 28.4752C20.916 28.6607 23.0725 29.2173 23.5362 29.2173C23.6058 29.2173 23.6522 28.6376 23.6522 27.9187C23.6522 26.6665 23.629 26.597 22.3304 25.2984C20.2667 23.2579 16.9739 21.2405 13.8203 20.0811C13.4029 19.9419 13.3798 20.0811 13.5189 24.51C13.6116 28.0347 13.7508 29.5187 14.1218 30.8636C15.1884 34.9448 18.3421 39.6288 21.7275 42.1795C22.6087 42.8288 23.3739 43.3621 23.4899 43.3621C23.5826 43.3621 23.6522 40.4172 23.6522 36.7998ZM28.1739 21.8434C29.9826 20.6376 31.6753 19.826 35.3623 18.3419C37.0318 17.6927 38.9565 16.8115 39.6521 16.4173L40.9275 15.6753L39.4666 15.4898C37.6811 15.2811 35.6173 14.7246 34.6434 14.1449L33.9014 13.7275L33.0434 14.9796C32.1623 16.255 29.8203 18.5506 28.9391 19.0376C28.313 19.3622 28.4985 19.084 30.029 17.2753C31.5826 15.4434 32.3246 14.1217 33.0666 11.9188C33.5768 10.4115 33.6463 9.83184 33.5304 8.62605C33.3913 7.04924 32.4637 4.68404 31.7217 4.01158C31.2811 3.61737 31.2579 3.64056 30.655 4.40578C30.3072 4.84636 29.7971 5.44925 29.4956 5.70432L28.9623 6.21446L29.4261 6.97968C30.029 8.04634 30.2145 9.08981 30.029 10.3884C29.7971 12.0811 29.6811 12.1739 28.5681 11.6173C28.058 11.3623 26.8522 10.5275 25.8783 9.73909C24.9043 8.97387 24.0696 8.34779 24 8.34779C23.9304 8.34779 23.0957 8.97387 22.1217 9.73909C20.6377 10.9217 18.8522 12.0579 18.458 12.0579C18.4116 12.0579 18.2493 11.5246 18.087 10.8985C17.7392 9.48402 17.9247 8.02315 18.5739 6.97968L19.0377 6.21446L17.9479 5.03186C17.345 4.3594 16.8116 3.77969 16.7653 3.73332C16.6261 3.52462 15.9305 4.33621 15.4203 5.3565C14.5855 6.97968 14.2609 9.113 14.5855 10.713C15.0029 12.6608 16.4638 15.4434 18.087 17.3449C18.8754 18.2956 19.4783 19.1072 19.4087 19.1535C19.0609 19.5014 15.1653 15.6057 14.3769 14.1449C14.145 13.7043 14.1218 13.7043 13.3798 14.1449C12.4058 14.7246 10.3421 15.2811 8.5334 15.4898L7.07254 15.6753L8.3479 16.4173C9.04354 16.8115 10.9682 17.6927 12.6377 18.3419C18.087 20.5216 20.4986 21.9361 22.8406 24.3245L23.9768 25.5071L25.3913 24.139C26.1565 23.397 27.4087 22.3535 28.1739 21.8434Z" fill="black"/>
<path d="M28.5681 28.0347C28.6377 27.339 28.7304 27.2463 29.4029 27.1767C29.9594 27.1303 30.1449 26.9912 30.1449 26.6666C30.1449 26.226 30.9797 25.5767 31.2348 25.8318C31.5594 26.1564 30.4232 27.7564 29.4956 28.2666L28.4985 28.7999L28.5681 28.0347Z" fill="#EF3D23"/>
</g>
<defs>
<clipPath id="clip0_37_8">
<rect width="48" height="55.6291" fill="white"/>
</clipPath>
</defs>
</svg>
