<svg width="48" height="51" viewBox="0 0 48 51" fill="none" xmlns="http://www.w3.org/2000/svg">
<g clip-path="url(#clip0_3234_3983)">
<mask id="mask0_3234_3983" style="mask-type:luminance" maskUnits="userSpaceOnUse" x="0" y="0" width="48" height="51">
<path d="M47.9615 0H0V50.6667H47.9615V0Z" fill="white"/>
</mask>
<g mask="url(#mask0_3234_3983)">
<path d="M14.7078 10.0251V17.1211V17.6185L11.5114 19.6604V19.6635H14.7078V45.3484L8.31187 41.2585V21.7054L6.39589 22.9336V40.0333L0 35.9434V27.0235V19.4332V3.19629H6.39589V15.3433L8.31187 14.1151V3.19629H14.7078V10.0251Z" fill="#FF198F"/>
<path d="M31.335 46.5763V19.6632H28.1386L31.335 17.6183V3.20215H16.6211V46.5763L23.0139 50.6663V22.9333L24.933 21.7051V50.6663L31.335 46.5763ZM24.9392 14.1148L23.02 15.343V9.59193H24.9392V14.1148Z" fill="#FF198F"/>
<path d="M47.9617 28.3528V35.9431L41.5658 40.0331L40.224 40.8928L39.6467 41.2582L33.2539 45.3481V37.7578V7.99219H39.6467V33.6679L41.5658 32.4427V7.99219H47.9617V28.3528Z" fill="#FF198F"/>
<path d="M44.7659 6.39589L41.5664 3.19641L44.7659 0L47.9623 3.19641L44.7659 6.39589Z" fill="#FF198F"/>
<path d="M36.452 -0.000488281L33.2539 3.19767L36.452 6.39582L39.6502 3.19767L36.452 -0.000488281Z" fill="#FF198F"/>
</g>
</g>
<defs>
<clipPath id="clip0_3234_3983">
<rect width="48" height="50.6667" fill="white"/>
</clipPath>
</defs>
</svg>
