<svg width="48" height="48" viewBox="0 0 48 48" fill="none" xmlns="http://www.w3.org/2000/svg">
<g clip-path="url(#clip0_17_225)">
<path d="M26.9395 9.53674e-06C28.0614 3.57057 29.1832 7.14145 30.3048 10.7126C30.3125 10.7363 30.3165 10.7499 30.3168 10.7534C30.3232 10.8306 30.3002 10.8395 30.2477 10.7803L26.3645 6.40513C26.3575 6.39739 26.3522 6.38828 26.3489 6.37837C26.3456 6.36846 26.3444 6.35796 26.3453 6.34753L26.867 9.53674e-06H26.9395ZM17.6477 12.168C17.6517 12.1677 17.6555 12.1662 17.6587 12.1638C17.6619 12.1615 17.6644 12.1582 17.666 12.1545C17.6675 12.1507 17.668 12.1466 17.6674 12.1426C17.6668 12.1385 17.6651 12.1347 17.6626 12.1315L15.8506 9.94465C15.8312 9.92117 15.8078 9.90149 15.7814 9.88657C13.7392 8.73521 11.2413 7.32513 8.28768 5.65633C8.27328 5.64833 8.26208 5.63889 8.25408 5.62801C8.25046 5.62326 8.24825 5.6176 8.24772 5.61165C8.24718 5.60571 8.24833 5.59974 8.25104 5.59442C8.25375 5.5891 8.2579 5.58466 8.26303 5.5816C8.26815 5.57854 8.27403 5.57699 8.28 5.57713L11.1034 5.65537C11.1129 5.65569 11.1223 5.65747 11.1312 5.66065L23.3659 10.3166C23.3976 10.3287 23.4268 10.3466 23.4518 10.3694L24.9211 11.701C24.9273 11.7062 24.9351 11.7091 24.9432 11.7091C24.9653 11.7085 24.9709 11.6971 24.96 11.675C24.9286 11.611 24.3507 10.4792 23.2262 8.27953C23.216 8.25905 23.2002 8.24481 23.1787 8.23681L19.8038 6.95233C19.7973 6.94991 19.7915 6.94573 19.7872 6.94025C19.7829 6.93477 19.7802 6.92822 19.7794 6.92133C19.7786 6.91444 19.7798 6.90749 19.7827 6.90126C19.7857 6.89504 19.7903 6.88978 19.7962 6.88609L20.5824 6.37297C20.5918 6.36685 20.599 6.35772 20.6026 6.34702C20.6063 6.33632 20.6062 6.32467 20.6026 6.31393L18.4963 0.41713C18.4948 0.412745 18.4946 0.408196 18.4958 0.40417C18.5064 0.36769 18.5264 0.36209 18.5558 0.38737C18.5638 0.39441 22.6138 4.94833 30.7056 14.0491C30.7482 14.0971 30.796 14.1429 30.8491 14.1864C31.1982 14.4725 31.515 14.7336 31.7995 14.9698C31.8533 15.0142 31.8762 15.0018 31.8682 14.9323L31.5677 12.385C31.5672 12.3808 31.5676 12.3765 31.5691 12.3725C31.5706 12.3685 31.5729 12.3649 31.5761 12.3619C31.5792 12.359 31.583 12.3568 31.5871 12.3556C31.5912 12.3543 31.5956 12.354 31.5998 12.3547C31.6158 12.3573 31.6312 12.3706 31.6459 12.3946C32.2725 13.4253 33.2581 15.0446 34.6027 17.2526C34.6187 17.2789 34.6386 17.3018 34.6622 17.3213L38.5699 20.5334C38.5794 20.5412 38.5914 20.5452 38.6036 20.5447C38.6158 20.5442 38.6272 20.5391 38.6357 20.5306L39.3341 19.8322C39.3389 19.8273 39.3451 19.8239 39.3518 19.8224C39.3585 19.8209 39.3656 19.8214 39.372 19.8237C39.3785 19.8261 39.3842 19.8303 39.3883 19.8358C39.3925 19.8413 39.395 19.8479 39.3955 19.8547L39.6115 22.2845C39.6128 22.2987 39.6106 22.313 39.6053 22.3262L38.5339 24.9302C38.5242 24.9537 38.5075 24.9738 38.4859 24.9879L37.1774 25.8418C37.1621 25.8517 37.1453 25.8558 37.127 25.8542L36.0912 25.7602C36.0853 25.7596 36.0797 25.7572 36.0751 25.7535C36.0705 25.7497 36.0671 25.7446 36.0654 25.7389C36.0636 25.7333 36.0636 25.7272 36.0653 25.7215C36.067 25.7158 36.0703 25.7107 36.0749 25.7069L37.0238 24.9211C37.0308 24.9152 37.0363 24.9077 37.0398 24.8993C37.0433 24.8909 37.0448 24.8817 37.044 24.8726L36.9778 24.1291C36.977 24.12 36.974 24.1111 36.969 24.1033C36.964 24.0955 36.9571 24.0891 36.949 24.0845L36.1627 23.641C36.1467 23.632 36.1355 23.6362 36.1291 23.6534L36.0058 23.9774C36.0021 23.9867 35.9956 23.9945 35.9872 23.9997C35.9788 24.0049 35.969 24.0072 35.9592 24.0062L34.199 23.8469C34.0432 23.8325 34.039 23.799 34.1866 23.7466L34.9238 23.4831C34.9368 23.4783 34.9478 23.4695 34.9552 23.4578C34.9626 23.4462 34.9659 23.4325 34.9646 23.4187L34.8614 22.2528C34.8604 22.2414 34.8566 22.2304 34.8503 22.2208C34.844 22.2112 34.8355 22.2032 34.8254 22.1976C32.2251 20.7327 30.3091 19.6527 29.0774 18.9576C28.7955 18.7986 28.5254 18.6278 28.2672 18.4454C26.9248 17.4982 25.7314 16.6579 24.6869 15.9245C24.6584 15.9043 24.6358 15.879 24.6192 15.8486L22.62 12.1747C22.5867 12.1139 22.5627 12.1173 22.548 12.1848L22.1366 14.0626C22.1314 14.0858 22.1179 14.1064 22.0987 14.1206L17.0122 17.8911C17.0043 17.8968 16.9979 17.9044 16.9935 17.9132C16.989 17.9219 16.9867 17.9316 16.9867 17.9414V24.0048C16.9867 24.0084 16.9859 24.0119 16.9843 24.015C16.9827 24.0181 16.9804 24.0207 16.9776 24.0226C16.9658 24.0309 16.9539 24.0323 16.9421 24.0269C16.9341 24.023 16.9283 24.0189 16.9248 24.0144L14.772 20.9424C14.767 20.9352 14.7603 20.9295 14.7523 20.9258C14.7444 20.9221 14.7356 20.9205 14.7269 20.9213L9.59712 21.3768C9.59269 21.3771 9.58827 21.3765 9.58416 21.3749C9.54704 21.3611 9.54512 21.341 9.5784 21.3144C10.0293 20.9576 11.6989 19.6482 14.5872 17.3861C14.5968 17.3784 14.6031 17.3673 14.6049 17.3552C14.6067 17.3431 14.6038 17.3308 14.5968 17.3208L11.411 12.7766C11.4073 12.7714 11.4051 12.7653 11.4045 12.759C11.4039 12.7526 11.405 12.7462 11.4078 12.7403C11.4105 12.7345 11.4147 12.7294 11.42 12.7257C11.4253 12.722 11.4315 12.7197 11.4379 12.7191L17.6477 12.168ZM29.5469 15.9231L29.329 16.1035C29.3203 16.1108 29.3142 16.1205 29.3116 16.1314C29.3089 16.1423 29.3098 16.1537 29.3141 16.164L30.2083 18.3326C30.2185 18.3573 30.2377 18.3771 30.2621 18.3878L33.1589 19.6771C33.1629 19.679 33.1673 19.6797 33.1716 19.6793C33.176 19.6788 33.1802 19.6772 33.1837 19.6746C33.1872 19.672 33.19 19.6685 33.1917 19.6645C33.1934 19.6605 33.194 19.656 33.1934 19.6517L32.9664 17.7245C32.9636 17.7027 32.9536 17.6827 32.9381 17.6678L30.8342 15.6322C30.8055 15.6041 30.7735 15.5798 30.7387 15.5597L28.3666 14.1955C28.362 14.193 28.357 14.1914 28.3519 14.191C28.3468 14.1906 28.3416 14.1913 28.3368 14.1931C28.309 14.2037 28.3067 14.2239 28.3301 14.2536C28.4923 14.4629 28.8994 15.0079 29.5512 15.8885C29.5551 15.8936 29.5568 15.9001 29.556 15.9065C29.5552 15.9129 29.5519 15.9189 29.5469 15.9231Z" fill="#69ACDC"/>
<path d="M48 22.7827V24.2861C47.8272 28.944 46.38 33.431 43.7083 37.2346C39.5981 43.0858 33.2266 46.8072 26.088 47.4379C25.8614 47.4581 25.4374 47.4854 24.816 47.52H23.2018C22.6312 47.4902 22.1818 47.4606 21.8534 47.4312C20.1222 47.2757 18.427 46.9376 16.7678 46.417C16.7048 46.3971 16.7062 46.3851 16.7722 46.381C16.9629 46.3685 17.1317 46.3557 17.2786 46.3426C17.3944 46.3323 17.5632 46.3395 17.785 46.3642C19.313 46.5344 20.7682 46.5544 22.1506 46.4242C25.9941 46.0616 29.4805 44.7538 32.6098 42.5006C32.6118 42.4993 32.6134 42.4973 32.6144 42.4951C32.6153 42.4928 32.6156 42.4903 32.6151 42.4878C32.6147 42.4853 32.6135 42.483 32.6118 42.4811C32.6101 42.4792 32.6079 42.4778 32.6054 42.4771C31.1837 42.1021 29.8563 41.5098 28.6234 40.7002C28.5846 40.6749 28.588 40.6666 28.6334 40.6752C31.404 41.2182 34.081 40.9438 36.6643 39.852C36.6786 39.8461 36.6912 39.8368 36.7011 39.825C36.711 39.8133 36.718 39.7993 36.7214 39.7843C37.1586 37.8922 37.1958 36.0019 36.8333 34.1136C36.8291 34.0918 36.836 34.0875 36.8539 34.1006C38.253 35.1218 39.7934 35.8472 41.4754 36.277C41.4838 36.2793 41.4927 36.279 41.5011 36.2763C41.5094 36.2736 41.5168 36.2685 41.5224 36.2616C43.9046 33.3086 45.4411 29.7542 45.8582 25.979C46.2806 22.1621 45.6523 18.2962 43.9411 14.8622C41.5829 10.1309 37.512 6.51889 32.5056 4.80001C32.4989 4.79761 32.4928 4.79372 32.4879 4.78863C32.483 4.78355 32.4794 4.77742 32.4773 4.77073L31.1789 0.636009C31.1781 0.633686 31.1781 0.631214 31.1787 0.628856C31.1793 0.626498 31.1805 0.624343 31.1823 0.62262C31.1841 0.620896 31.1863 0.619669 31.1887 0.619069C31.1912 0.618468 31.1937 0.618517 31.1962 0.619209C36.6778 2.32897 41.4638 6.05473 44.4638 10.9661C46.669 14.5757 47.8477 18.5146 48 22.7827ZM14.831 3.60049L15.2573 1.31761C15.2582 1.31289 15.26 1.30843 15.2627 1.30447C15.2653 1.30051 15.2687 1.29714 15.2726 1.29457C15.2954 1.27921 15.3146 1.28593 15.3302 1.31473C15.4864 1.60529 16.3634 3.22401 17.9611 6.17089C17.9688 6.18529 17.9726 6.19809 17.9726 6.20929C17.9727 6.21441 17.9714 6.21945 17.9691 6.22399C17.9667 6.22853 17.9633 6.23242 17.9591 6.23535C17.9549 6.23827 17.95 6.24014 17.9449 6.24078C17.9399 6.24143 17.9347 6.24083 17.9299 6.23905L10.8878 3.55921C10.8165 3.53201 10.819 3.51937 10.8955 3.52129L14.7955 3.62881C14.8038 3.62908 14.812 3.62637 14.8185 3.62118C14.825 3.616 14.8294 3.60866 14.831 3.60049Z" fill="#69ACDC"/>
<path d="M33.4397 7.75441C35.4595 8.68993 37.3104 10.0047 38.8373 11.6155C38.8485 11.6271 38.8533 11.6408 38.8517 11.6568C38.7451 12.7637 38.5197 13.8992 38.1754 15.0634C38.1517 15.144 38.137 15.1901 38.1312 15.2016C38.1238 15.2173 38.1138 15.2194 38.101 15.2078C37.1883 14.3925 36.1947 13.6992 35.1202 13.128C35.1127 13.1241 35.1061 13.1187 35.1008 13.1122C35.0954 13.1057 35.0914 13.0982 35.089 13.0901L33.419 7.77265C33.4182 7.76982 33.4183 7.7668 33.4191 7.76397C33.4199 7.76114 33.4215 7.75861 33.4237 7.75668C33.4259 7.75476 33.4285 7.75352 33.4314 7.75312C33.4342 7.75271 33.4371 7.75316 33.4397 7.75441ZM8.68896 8.71825L11.3362 10.1827C11.3424 10.1862 11.3473 10.1916 11.3502 10.198C11.3531 10.2045 11.3539 10.2117 11.3524 10.2187C11.3509 10.2256 11.3472 10.2319 11.3418 10.2366C11.3365 10.2412 11.3298 10.2441 11.3227 10.2446L4.1904 10.8778C4.18271 10.8783 4.17505 10.8762 4.16876 10.8717C4.16247 10.8673 4.15794 10.8607 4.15595 10.8533C4.15396 10.8458 4.15463 10.8379 4.15785 10.8309C4.16108 10.8239 4.16665 10.8182 4.1736 10.8149L8.65872 8.71729C8.66347 8.71504 8.6687 8.71395 8.67396 8.71412C8.67921 8.71428 8.68436 8.7157 8.68896 8.71825ZM0 23.8224V23.2358C0.05088 19.8179 0.78448 16.5643 2.2008 13.4751C2.20545 13.4648 2.21278 13.4561 2.22206 13.4496C2.23133 13.4431 2.24221 13.4391 2.2536 13.4381L7.41744 12.9797C7.42607 12.979 7.43472 12.9805 7.44255 12.9841C7.45038 12.9877 7.45711 12.9933 7.46208 13.0003L9.91968 16.5058C9.92086 16.5075 9.92157 16.5095 9.92174 16.5115C9.92192 16.5136 9.92155 16.5157 9.92068 16.5176C9.91981 16.5195 9.91846 16.5211 9.91677 16.5223C9.91508 16.5235 9.91311 16.5243 9.91104 16.5245L7.34496 16.752C7.33184 16.7533 7.32304 16.76 7.31856 16.7722C5.5728 21.4459 5.70672 26.6789 7.58208 31.2634C9.76368 36.5976 14.2392 40.7746 19.7227 42.6063C19.7659 42.6207 19.765 42.6315 19.7198 42.6389C16.9362 43.0837 14.1658 42.9859 11.4086 42.3456C9.05984 41.7997 7.10352 40.6355 5.53968 38.8531C5.36624 38.6554 5.1656 38.4061 4.93776 38.1053C1.7592 33.9107 0.11328 29.1498 0 23.8224ZM41.8723 15.8952C43.6435 19.4795 44.1686 23.2655 43.4477 27.253C43.4374 27.309 43.4259 27.3091 43.4131 27.2535C43.305 26.7795 43.2163 26.4021 43.1472 26.1211C43.1139 25.9854 43.0918 25.8171 43.081 25.6162C42.9526 23.2136 42.2901 20.9701 41.0933 18.8856C41.0909 18.8815 41.0894 18.877 41.0889 18.8724C41.0884 18.8678 41.0889 18.8631 41.0904 18.8587C41.4258 17.8869 41.6742 16.901 41.8358 15.901C41.8422 15.8613 41.8544 15.8594 41.8723 15.8952ZM22.5019 18.8405C22.4456 18.8549 22.4429 18.8763 22.4938 18.9048L26.917 21.3984C26.9253 21.4031 26.9323 21.4098 26.9375 21.4178C26.9426 21.4258 26.9458 21.435 26.9467 21.4445L27.2962 24.9965C27.2993 25.0303 27.3068 25.0635 27.3182 25.0954L28.5173 28.4525C28.5262 28.4781 28.5419 28.4984 28.5643 28.5135L30.0974 29.5474C30.1144 29.5589 30.1326 29.5616 30.1522 29.5555C30.3509 29.4938 30.5434 29.4326 30.7296 29.3722C30.8419 29.336 30.948 29.2843 31.0478 29.2171C31.5195 28.901 31.879 28.661 32.1264 28.4971C32.1328 28.4926 32.14 28.4904 32.148 28.4904C32.1691 28.4901 32.1792 28.5034 32.1782 28.5303C32.1782 28.5334 32.1774 28.5365 32.1758 28.5394L31.0325 30.5779C31.0296 30.583 31.0282 30.5889 31.0285 30.5948C31.0287 30.6007 31.0306 30.6065 31.0339 30.6115L31.4438 31.2399C31.4486 31.2472 31.4557 31.2527 31.4641 31.2555C31.4725 31.2583 31.4816 31.2582 31.4899 31.2552C31.7216 31.1707 31.8781 31.1155 31.9594 31.0896C32.0301 31.0675 32.0987 31.0238 32.1653 30.9586C32.3067 30.8206 32.4891 30.652 32.7125 30.4526C32.7148 30.4506 32.7175 30.449 32.7205 30.4482C32.7235 30.4473 32.7266 30.447 32.7297 30.4475C32.7328 30.448 32.7357 30.4491 32.7383 30.4508C32.7409 30.4525 32.743 30.4548 32.7446 30.4575C32.7482 30.4635 32.7509 30.4714 32.7528 30.481C32.7544 30.4883 32.7536 30.4962 32.7504 30.5045C32.5235 31.0991 32.2181 31.8989 31.8341 32.904C31.8243 32.9302 31.8081 32.9536 31.787 32.9722C31.38 33.3322 30.9714 33.6942 30.5611 34.0584C30.4939 34.1179 30.4187 34.1621 30.3355 34.1909C30.0267 34.2978 29.6741 34.4231 29.2776 34.5667C29.2622 34.5722 29.2467 34.5725 29.231 34.5677L25.5984 33.4426C25.5139 33.4166 25.5134 33.3888 25.597 33.359L27.2304 32.7754C27.2535 32.767 27.2724 32.7504 27.2832 32.7288L27.5688 32.1624C27.5716 32.1566 27.573 32.1502 27.573 32.1437C27.5729 32.1372 27.5713 32.1308 27.5683 32.125L24.6917 26.6813C24.6821 26.663 24.6686 26.6482 24.6514 26.6366L20.7792 24.0245C20.7725 24.0201 20.7651 24.0172 20.7572 24.0159C20.7494 24.0146 20.7413 24.0149 20.7336 24.0168L19.7986 24.2654C19.7944 24.2666 19.79 24.2667 19.7857 24.2658C19.7815 24.265 19.7775 24.2631 19.7741 24.2605C19.7706 24.2579 19.7679 24.2545 19.766 24.2506C19.764 24.2467 19.763 24.2424 19.763 24.2381V19.1995C19.763 19.1915 19.7648 19.1835 19.7683 19.1763C19.7718 19.1691 19.7769 19.1627 19.7832 19.1578L21.9797 17.4432C21.9887 17.4362 21.9995 17.432 22.011 17.4312C22.0224 17.4303 22.0339 17.4328 22.044 17.4384L23.8368 18.4493C23.8403 18.4513 23.8434 18.454 23.8457 18.4574C23.848 18.4607 23.8496 18.4645 23.8503 18.4685C23.851 18.4725 23.8508 18.4766 23.8497 18.4805C23.8486 18.4844 23.8467 18.488 23.844 18.4911C23.8325 18.5042 23.8098 18.5146 23.7758 18.5223C23.5458 18.576 23.1211 18.6821 22.5019 18.8405Z" fill="#69ACDC"/>
<path d="M30.876 23.627L29.9146 25.5346C29.913 25.5376 29.9107 25.5402 29.9078 25.5419C29.905 25.5437 29.9016 25.5447 29.8982 25.5447C29.8949 25.5447 29.8915 25.5437 29.8886 25.5419C29.8858 25.5402 29.8834 25.5376 29.8819 25.5346C29.8163 25.403 29.7462 25.2736 29.6717 25.1462C29.6352 25.0835 29.6118 25.0013 29.6016 24.8995C29.5235 24.111 29.399 22.8701 29.2282 21.1766C29.2259 21.1546 29.2344 21.149 29.2536 21.1598L32.5291 23.0064C32.5454 23.0157 32.5448 23.0234 32.5272 23.0294L30.8904 23.6141C30.8842 23.6166 30.8791 23.6212 30.876 23.627ZM10.8437 32.0294C9.6696 29.8246 8.98864 27.4718 8.8008 24.971C8.80025 24.9632 8.8023 24.9553 8.80664 24.9488C8.81097 24.9422 8.81736 24.9372 8.8248 24.9346C10.4782 24.3883 12.1768 24.0907 13.9205 24.0418C13.925 24.0418 13.9294 24.0434 13.9327 24.0465C13.936 24.0495 13.938 24.0537 13.9382 24.0581C13.9994 25.3061 14.2142 26.5299 14.5829 27.7296C14.5843 27.7347 14.5843 27.7401 14.5827 27.7451C14.5812 27.7502 14.5783 27.7546 14.5742 27.7579C13.1218 28.9822 11.8925 30.4066 10.8864 32.0309C10.8714 32.0552 10.8571 32.0547 10.8437 32.0294ZM17.2354 38.808C15.7301 37.8816 14.3926 36.76 13.223 35.4432C13.2122 35.431 13.2112 35.4181 13.2202 35.4043C14.1434 34.0405 15.2357 32.825 16.4971 31.7578C16.4991 31.7561 16.5014 31.7548 16.5039 31.7541C16.5065 31.7533 16.5091 31.7531 16.5117 31.7535C16.5144 31.7539 16.5169 31.7548 16.5192 31.7562C16.5214 31.7576 16.5234 31.7594 16.525 31.7616C18.2731 34.2794 20.5646 36.1122 23.3995 37.26C23.4026 37.2613 23.4053 37.2635 23.4072 37.2663C23.4091 37.2691 23.4101 37.2723 23.4101 37.2757C23.4102 37.2791 23.4093 37.2824 23.4075 37.2852C23.4057 37.288 23.4031 37.2903 23.4 37.2917C21.4442 38.108 19.4048 38.6171 17.2819 38.819C17.265 38.8206 17.2494 38.817 17.2354 38.808Z" fill="#69ACDC"/>
</g>
<defs>
<clipPath id="clip0_17_225">
<rect width="48" height="47.52" fill="white"/>
</clipPath>
</defs>
</svg>
