<svg width="48" height="48" viewBox="0 0 48 48" fill="none" xmlns="http://www.w3.org/2000/svg">
<path d="M21.931 22.5931L18.8027 33.4841H14.251L17.0648 23.7352C17.0979 23.5862 17.0152 23.4372 16.8662 23.4041C16.8496 23.4041 16.8165 23.3876 16.8 23.3876H14.6483L11.7517 33.5007H7.34895L10.1462 23.7517C10.1793 23.6028 10.0965 23.4538 9.94757 23.4207C9.93102 23.4207 9.89792 23.4041 9.88137 23.4041H7.64688L4.76688 33.5007H0.198608L2.92964 23.9503C3.06206 23.4703 3.07861 22.9738 2.94619 22.4938L2.31723 20.1103H19.1172C19.349 20.1103 19.5807 20.1931 19.7627 20.3255L21.6496 21.7821C21.8979 21.9807 22.0138 22.2952 21.931 22.5931Z" fill="#060606"/>
<path d="M31.2165 23.7352L29.4951 29.7434C29.4289 29.9586 29.2303 30.1076 28.9986 30.1076H26.88L28.8165 23.371H30.9682C31.1172 23.371 31.2331 23.5034 31.2331 23.6524C31.2165 23.6855 31.2165 23.7186 31.2165 23.7352ZM33.1862 20.1269H29.76L31.382 14.4993H26.9793L21.5172 33.5007H31.5641C32.3089 33.5007 32.971 33.0041 33.1696 32.2924L35.9503 22.5931C36.0331 22.2952 35.9338 21.9807 35.6855 21.7986L33.8317 20.3586C33.6496 20.1931 33.4179 20.1103 33.1862 20.1269Z" fill="#060606"/>
<path d="M47.8014 20.1103L45.0538 23.3876H43.2662C42.9683 23.3876 42.6869 23.5862 42.6041 23.8841L39.84 33.5007H35.4372L38.5655 22.6262C38.6648 22.2786 38.88 21.9972 39.1779 21.7986L41.5779 20.2759C41.7434 20.1766 41.9421 20.1103 42.1407 20.1103H47.8014Z" fill="#060606"/>
<path d="M24.2648 14.4993L23.371 17.5945C23.2717 17.9421 22.9407 18.1903 22.5765 18.1903H20.7062C20.491 18.1903 20.2758 18.1241 20.1103 17.9752L18.9683 17.0814L19.7131 14.4828H24.2648V14.4993Z" fill="#060606"/>
</svg>
