<svg width="48" height="48" viewBox="0 0 48 48" fill="none" xmlns="http://www.w3.org/2000/svg">
<path d="M20.6254 29.7293C20.6254 29.8647 20.5287 29.9614 20.3933 29.9614H17.4341C17.2987 29.9614 17.202 29.8647 17.202 29.7293V18.551C17.202 18.4156 17.2987 18.3189 17.4341 18.3189C17.4921 18.3189 23.1396 18.2995 25.9825 18.3189C27.0656 18.3189 28.342 18.3963 29.5411 18.8604C30.6435 19.2859 31.3398 19.8661 31.7459 20.6978C32.1908 21.6261 32.2488 22.7285 31.9007 23.6569C31.5525 24.5659 30.8563 25.2622 29.87 25.6684C29.5218 25.8231 29.1543 25.9198 28.8062 26.0358C28.7675 26.0552 28.7288 26.0552 28.6901 26.0745L28.9416 26.3259C29.4057 26.7708 29.8892 27.2156 30.3728 27.6604C30.8563 28.1053 31.3204 28.5501 31.8233 28.9949L32.4228 29.4978C32.4808 29.5558 32.5195 29.6525 32.4808 29.7299C32.4422 29.8073 32.3841 29.8846 32.3068 29.904C32.2874 29.904 32.2488 29.9233 32.2294 29.9233C32.1907 29.9427 32.1327 29.9427 32.0747 29.9427H28.7287C28.5546 29.9427 28.3999 29.846 28.3032 29.7492C27.1427 28.6275 26.0017 27.5637 24.8605 26.442C24.7831 26.3646 24.7251 26.3453 24.6478 26.3453H21.7467C21.6113 26.3453 21.5146 26.2486 21.5146 26.1132V23.7729C21.5146 23.7149 21.5339 23.6569 21.5919 23.6182C21.6306 23.5795 21.6886 23.5602 21.7467 23.5602H22.733C23.9902 23.5602 24.9572 23.5408 26.369 23.5408C26.8139 23.5408 27.3167 23.4635 27.8969 23.3474C28.4385 23.2314 28.6899 22.9219 28.7093 22.3611C28.7093 21.8002 28.4965 21.51 27.9356 21.336C27.2974 21.1426 26.6205 21.1233 25.9242 21.1233H20.6249L20.6254 29.7293Z" fill="black"/>
<path d="M39.0374 21.1228C38.3411 21.1228 37.6641 21.1422 37.0259 21.3356C36.4844 21.5096 36.2523 21.7804 36.2523 22.3219V25.9579C36.2523 26.4801 36.4844 26.7703 37.0259 26.9443C37.6641 27.1377 38.3411 27.1571 39.0374 27.1571H44.3367V25.8033H41.4549C41.3195 25.8033 41.2228 25.7066 41.2228 25.5712V23.6564C41.2228 23.5211 41.3195 23.4244 41.4549 23.4244C41.4549 23.4244 47.5282 23.3857 47.5282 23.4244C47.6635 23.4244 47.7603 23.5211 47.7603 23.6564V29.6907C47.7603 29.8261 47.6636 29.9228 47.5282 29.9228H38.9798C37.916 29.9228 36.6395 29.9615 35.4017 29.478C34.2993 29.0525 33.6224 28.4142 33.2162 27.5826C32.9841 27.0991 32.8487 26.5575 32.8294 25.9967V22.2059C32.8294 22.1865 32.8294 22.1672 32.8488 22.1479C32.8874 21.6257 33.0035 21.1228 33.2162 20.6779C33.6224 19.8463 34.3186 19.2661 35.4211 18.8406C36.6589 18.3764 37.916 18.2991 38.9797 18.2991H47.2378C47.3732 18.2991 47.4699 18.3958 47.4699 18.5312V20.8714C47.4699 21.0068 47.3732 21.1035 47.2378 21.1035L39.0374 21.1228Z" fill="black"/>
<path d="M3.37322 18.3184C3.52796 18.3184 3.70202 18.3764 3.81807 18.4731C5.46201 19.8657 7.1253 21.2775 8.76925 22.67L12.9469 26.2286V18.5505C12.9469 18.4151 13.0436 18.3184 13.179 18.3184H16.1187C16.2541 18.3184 16.3508 18.4151 16.3508 18.5505V29.7487C16.3508 29.8841 16.2541 29.9808 16.1187 29.9808H12.9275C12.7728 29.9808 12.5794 29.9228 12.4633 29.8068C10.8774 28.453 9.29143 27.099 7.70548 25.7452L3.62456 22.2833V29.7292C3.62456 29.8646 3.52785 29.9613 3.39247 29.9613H0.472016C0.336637 29.9613 0.239929 29.8646 0.239929 29.7292V18.5509C0.239929 18.4349 0.317292 18.3188 0.452677 18.3188L3.37322 18.3184Z" fill="black"/>
</svg>
