<svg width="48" height="48" viewBox="0 0 48 48" fill="none" xmlns="http://www.w3.org/2000/svg">
<g clip-path="url(#clip0_30_378)">
<path d="M47.2975 0H0.702503C0.315142 0 0 0.315142 0 0.702504V47.2975C0 47.6849 0.315142 48 0.702503 48H47.2975C47.6849 48 48 47.6849 48 47.2975V0.702504C48 0.315142 47.6849 0 47.2975 0ZM18.508 13.0849L19.7226 10.9709C19.8276 10.787 20.0312 10.6689 20.2412 10.6689H27.7522C27.9688 10.6689 28.1658 10.787 28.2708 10.9709L29.4854 13.0849C29.5904 13.2688 29.5904 13.4986 29.4854 13.689L27.1679 17.6873L25.73 20.1756C25.6249 20.3594 25.4214 20.4776 25.2048 20.4776H22.7755C22.5589 20.4776 22.3619 20.366 22.2503 20.1756L20.8124 17.6873L18.4949 13.689C18.3899 13.5052 18.3899 13.2754 18.4949 13.0849H18.508ZM37.4165 20.7271L31.757 30.503L28.2445 36.5892C27.982 37.0423 27.4961 37.3246 26.9708 37.3246H21.0292C20.5039 37.3246 20.018 37.0423 19.7555 36.5892L16.243 30.503L10.5835 20.7271C10.3209 20.2741 10.3209 19.7095 10.5835 19.2565L13.5511 14.096C13.8137 13.643 14.2996 13.3607 14.8248 13.3607H16.1707L15.5798 14.3783L15.094 15.2252C14.9167 15.5273 14.9233 15.9016 15.094 16.2035L18.8494 22.6902L21.1801 26.728C21.3574 27.03 21.6791 27.2138 22.0271 27.2138H25.9729C26.3209 27.2138 26.6426 27.03 26.8199 26.728L29.1506 22.6902L32.906 16.2035C33.0833 15.9016 33.0833 15.5273 32.906 15.2252L32.4202 14.3783L31.8293 13.3541H33.1752C33.7004 13.3541 34.1863 13.6364 34.4489 14.096L37.4165 19.2565C37.6792 19.7095 37.6792 20.2741 37.4165 20.7271Z" fill="#E5062F"/>
</g>
<defs>
<clipPath id="clip0_30_378">
<rect width="48" height="48" fill="white"/>
</clipPath>
</defs>
</svg>
