<svg width="800" height="800" viewBox="0 0 800 800" fill="none" xmlns="http://www.w3.org/2000/svg">
<path d="M0 600C0 623.575 9.36505 646.184 26.035 662.854C42.7049 679.524 65.3141 688.889 88.8889 688.889H711.111C734.686 688.889 757.295 679.524 773.965 662.854C790.635 646.184 800 623.575 800 600V511.111H0V600Z" fill="#138808"/>
<path d="M0 288.889H800V511.111H0V288.889Z" fill="#EEEEEE"/>
<path d="M800 288.889V200C800 176.425 790.635 153.816 773.965 137.146C757.295 120.476 734.686 111.111 711.111 111.111H88.8889C65.3141 111.111 42.7049 120.476 26.035 137.146C9.36505 153.816 0 176.425 0 200L0 288.889H800Z" fill="#FF9933"/>
<path d="M400 488.889C449.092 488.889 488.889 449.092 488.889 400C488.889 350.908 449.092 311.111 400 311.111C350.908 311.111 311.111 350.908 311.111 400C311.111 449.092 350.908 488.889 400 488.889Z" fill="#000080"/>
<path d="M400 466.667C436.819 466.667 466.667 436.819 466.667 400C466.667 363.181 436.819 333.333 400 333.333C363.181 333.333 333.333 363.181 333.333 400C333.333 436.819 363.181 466.667 400 466.667Z" fill="#EEEEEE"/>
<path d="M400 333.333L403.244 383.644L425.489 338.422L409.267 386.133L447.133 352.844L413.867 390.733L461.578 374.489L416.356 396.755L466.667 400L416.356 403.244L461.578 425.489L413.867 409.267L447.133 447.133L409.267 413.867L425.489 461.578L403.244 416.355L400 466.667L396.756 416.355L374.489 461.578L390.733 413.867L352.844 447.133L386.133 409.267L338.422 425.489L383.644 403.244L333.333 400L383.644 396.755L338.422 374.489L386.133 390.733L352.844 352.844L390.733 386.133L374.489 338.422L396.756 383.644L400 333.333Z" fill="#6666B3"/>
<path d="M400 422.222C412.273 422.222 422.222 412.273 422.222 400C422.222 387.727 412.273 377.778 400 377.778C387.727 377.778 377.778 387.727 377.778 400C377.778 412.273 387.727 422.222 400 422.222Z" fill="#000080"/>
</svg>
