<svg width="800" height="800" viewBox="0 0 800 800" fill="none" xmlns="http://www.w3.org/2000/svg">
<path d="M800 599.996C800 623.571 790.635 646.18 773.965 662.85C757.295 679.52 734.686 688.885 711.111 688.885H88.8889C65.3141 688.885 42.7049 679.52 26.035 662.85C9.36505 646.18 0 623.571 0 599.996V199.996C0 176.421 9.36505 153.812 26.035 137.142C42.7049 120.472 65.3141 111.107 88.8889 111.107H711.111C734.686 111.107 757.295 120.472 773.965 137.142C790.635 153.812 800 176.421 800 199.996V599.996Z" fill="#009B3A"/>
<path d="M727.289 399.996L400 647.196L72.7112 399.996L400 152.773L727.289 399.996Z" fill="#FEDF01"/>
<path d="M399.468 541.818C478.727 541.818 542.979 477.566 542.979 398.307C542.979 319.048 478.727 254.796 399.468 254.796C320.209 254.796 255.957 319.048 255.957 398.307C255.957 477.566 320.209 541.818 399.468 541.818Z" fill="#002776"/>
<path d="M272.823 330.818C265.37 344.864 260.322 360.06 257.89 375.774C346.668 369.33 467.156 417.796 518.868 477.885C527.801 464.463 534.423 449.441 538.49 433.352C474.668 370.952 362.556 330.463 272.823 330.818Z" fill="#CBE9D4"/>
<path d="M266.669 405.174H288.891V427.396H266.669V405.174ZM288.891 449.618H311.113V471.84H288.891V449.618Z" fill="#88C9F9"/>
<path d="M333.331 405.173H355.554V427.396H333.331V405.173ZM377.776 427.396H399.998V449.618H377.776V427.396ZM466.665 471.84H488.887V494.062H466.665V471.84ZM399.998 494.062H422.22V516.285H399.998V494.062ZM466.665 360.729H488.887V382.951H466.665V360.729Z" fill="#55ACEE"/>
<path d="M422.223 449.618H444.445V471.84H422.223V449.618Z" fill="#3B88C3"/>
</svg>
