<svg width="800" height="800" viewBox="0 0 800 800" fill="none" xmlns="http://www.w3.org/2000/svg">
<g clip-path="url(#clip0_6_152)">
<path d="M800 600C800 623.575 790.635 646.184 773.965 662.854C757.295 679.524 734.686 688.889 711.111 688.889H88.8889C65.3141 688.889 42.7049 679.524 26.035 662.854C9.36507 646.184 1.52588e-05 623.575 1.52588e-05 600V200C1.52588e-05 176.425 9.36507 153.816 26.035 137.146C42.7049 120.476 65.3141 111.111 88.8889 111.111H711.111C734.686 111.111 757.295 120.476 773.965 137.146C790.635 153.816 800 176.425 800 200V600Z" fill="#002D62"/>
<path d="M711.111 111.111H444.444V355.556H800V200C800 176.425 790.635 153.816 773.965 137.146C757.295 120.476 734.686 111.111 711.111 111.111Z" fill="#DD2E44"/>
<path d="M88.8889 688.889H355.556V444.444H1.52588e-05V600C1.52588e-05 623.575 9.36507 646.184 26.035 662.854C42.7049 679.524 65.3141 688.889 88.8889 688.889Z" fill="#CE1225"/>
<path d="M800 333.333H466.667V111.111H333.333V333.333H1.52588e-05V466.667H333.333V688.889H466.667V466.667H800V333.333Z" fill="#EEEEEE"/>
<path d="M400.489 354.333H357.889L365.333 361.511V398.289H400.489V354.333ZM400.489 441.8C406.156 435.622 410.022 435.867 426.044 435.867C434.6 435.867 435.6 430.044 435.6 418.733V398.289H400.489V441.8Z" fill="#002D62"/>
<path d="M400.489 441.8C394.822 435.622 390.956 435.867 374.911 435.867C366.333 435.867 365.333 430.044 365.333 418.733V398.289H400.489V441.8ZM400.489 354.333H443.044L435.6 361.511V398.289H400.489V354.333Z" fill="#CE1225"/>
<path d="M406.556 437.267V354.333H394.4V437.333C396.77 438.291 398.863 439.827 400.489 441.8C402.133 439.84 404.21 438.288 406.556 437.267Z" fill="white"/>
<path d="M365.333 392.089H435.578V404.244H365.333V392.089Z" fill="white"/>
<path d="M400.489 390.133L423.556 365.511V372.956L427.822 369.378V410.511C427.822 425.778 403.778 424.267 400.467 417.222C397.156 424.267 373.089 425.778 373.089 410.511V369.378L377.378 372.956V365.511L400.489 390.133Z" fill="#002D62"/>
<path d="M400.489 416.511C389.422 422.444 382.244 417.778 382.244 412.111V405.044C377.956 405.044 373.111 402.844 373.111 401.444V395.378C373.111 397.178 380.311 398.822 382.244 398.822V377.533L386.244 380.711V375.178L392.333 381.4V385.756L388.311 382.356V400.356C392.467 400.356 395.711 402.822 400.489 402.822C405.244 402.822 408.489 400.356 412.644 400.356V382.356L408.644 385.756V381.4L414.711 375.178V380.711L418.733 377.533V398.822C420.667 398.822 427.844 397.156 427.844 395.378V401.444C427.844 402.844 423 405.044 418.733 405.044V412.111C418.733 417.778 411.533 422.467 400.489 416.511V410.311C406.422 413.756 412.644 414.6 412.644 410.867V406.444C408.489 406.444 405.244 408.933 400.489 408.933C395.711 408.933 392.467 406.444 388.311 406.444V410.867C388.311 414.6 394.556 413.756 400.489 410.311V416.511Z" fill="white"/>
<path d="M408.644 381.422V385.778L412.644 382.378V400.378C408.489 400.378 405.244 402.844 400.489 402.844C395.711 402.844 392.467 400.378 388.311 400.378V382.378L392.333 385.778V381.422L400.489 390.155L408.644 381.422Z" fill="#CE1225"/>
<path d="M373.111 401.467V410.511C373.111 425.778 397.178 424.267 400.489 417.222C403.778 424.267 427.844 425.778 427.844 410.511V401.467C427.844 402.822 423 405.045 418.733 405.045V412.111C418.733 417.756 411.533 422.445 400.489 416.511C389.422 422.445 382.244 417.778 382.244 412.111V405.045C377.956 405.045 373.111 402.845 373.111 401.467Z" fill="#CE1225"/>
<path d="M409.733 339.6C410.156 338.489 410.578 336.889 410.978 335.422C407.498 334.989 403.995 334.766 400.489 334.756C396.933 334.756 393.133 335.022 389.978 335.422C390.378 336.889 390.8 338.489 391.222 339.6C391.489 340.445 389.844 342.511 383.911 342.156C377.557 341.94 371.197 342.379 364.933 343.467C366.022 345.133 366.422 345.467 366.311 346.756C366.156 348.2 362.756 349.556 356.822 350.4C350.889 351.222 348.6 357.378 346.556 366.2C343.866 365.156 341.072 364.404 338.222 363.956C339.556 358.222 344.156 345.2 349.911 343.889C348.511 340.778 348.844 339.222 354.2 336.711C360 334 369.822 332.356 380.644 331.956C379.956 329.333 380.644 328.289 384.044 326.822C386.956 325.556 391.578 324.6 400.511 324.6C409.4 324.6 414.044 325.556 416.933 326.822C420.356 328.267 421.022 329.333 420.356 331.956C431.156 332.356 441 334 446.778 336.711C452.133 339.2 452.467 340.778 451.067 343.889C456.8 345.2 461.422 358.222 462.733 363.956C460.489 364.289 456.733 365.245 454.444 366.2C452.4 357.378 450.089 351.222 444.133 350.4C438.2 349.556 434.778 348.2 434.644 346.756C434.489 345.467 434.933 345.133 436 343.467C429.743 342.38 423.391 341.941 417.044 342.156C411.133 342.511 409.489 340.422 409.733 339.6Z" fill="#002D62"/>
<path d="M400.489 392.222L428.778 368L429.4 368.733L400.489 393.467V392.222ZM400.489 389.511L424.378 363.578L425.067 364.267L400.489 390.933V389.511ZM400.489 385.956L419.467 359.756L420.222 360.311L400.489 387.6V385.956ZM400.489 392.222L372.2 368L371.578 368.733L400.489 393.467V392.222Z" fill="#996B38"/>
<path d="M400.489 389.511L376.6 363.578L375.911 364.267L400.489 390.933V389.511ZM400.489 385.956L381.489 359.756L380.711 360.311L400.489 387.6V385.956Z" fill="#996B38"/>
<path d="M428.311 367.644L432.378 365.511L429.667 369.222C429.444 369.422 428.133 367.822 428.311 367.644ZM423.867 363.311L427.689 360.711L425.422 364.711C425.2 364.911 423.689 363.489 423.867 363.311ZM418.956 359.489L422.444 356.444L420.622 360.689C420.444 360.955 418.8 359.711 418.956 359.489ZM372.644 367.644L368.556 365.511L371.289 369.222C371.511 369.422 372.822 367.822 372.644 367.644ZM377.067 363.311L373.289 360.711L375.578 364.711C375.756 364.911 377.267 363.489 377.067 363.311ZM382 359.489L378.533 356.444L380.311 360.689C380.511 360.955 382.156 359.711 382 359.489Z" fill="#FFCE46"/>
<path d="M393.622 386.044C394.733 385.133 397.867 383.622 399.711 384.6C401.133 382.956 404.511 381.533 406.356 382.489L410.267 394.556C409.178 395.333 406.978 394.933 405.6 395.778C405.222 396 404.156 396.6 403.978 397.044C403.311 396.756 401.8 396.911 400.733 397.267C399.756 397.556 399.067 398.578 397.911 398.733L393.622 386.044Z" fill="white"/>
<path d="M397.956 398.844L393.578 386.067L393.6 386C394.8 385.022 397.911 383.622 399.756 384.556C401.044 383 404.533 381.467 406.4 382.444L410.356 394.556C409.778 395.022 408.956 395.133 408.089 395.244C407.247 395.279 406.421 395.491 405.667 395.867C405.178 396.156 404.222 396.689 404.067 397.111C403.356 396.844 401.778 397.067 400.8 397.356C400.378 397.489 400.022 397.756 399.644 398.022C399.133 398.378 398.622 398.733 397.956 398.844ZM393.711 386.067L398 398.733C398.561 398.554 399.082 398.267 399.533 397.889C399.897 397.601 400.301 397.369 400.733 397.2C401.733 396.867 403.267 396.667 404.022 397C404.089 396.578 405.044 396.044 405.489 395.778C406.267 395.311 407.178 395.2 408.067 395.089C408.911 395 409.711 394.889 410.222 394.511L406.267 382.511C404.6 381.644 401.244 382.956 399.756 384.644C397.956 383.711 394.911 385.133 393.711 386.067Z" fill="black"/>
<path d="M437.933 450.667C441.556 450.645 446.356 451.622 447.867 452.178C445.94 450.752 443.803 449.635 441.533 448.867C444.844 449.4 445.689 449.956 447.911 450.511C449.444 450.956 449.689 451.111 449.756 453.333C449.778 454.822 449.778 456.756 450.689 453.644C451.533 450.844 451.844 450.445 450.356 449.511C448.534 448.308 446.59 447.302 444.556 446.511C448.822 447.622 452.289 449 454.356 450.356C453.011 448.287 451.219 446.548 449.111 445.267C451.6 445.845 454.933 447.2 457.267 448.467C455.87 446.38 454.016 444.639 451.844 443.378C455.622 444.178 459.644 445.422 461.822 446.645C459.711 443.867 457.311 441.422 454.156 440.467C458.356 440.978 462.333 442.245 464.133 443.333C461.689 441 459.133 438.533 456.622 437.689C460.067 438.156 463.267 439.045 465.133 439.889C462.36 437.314 458.89 435.613 455.156 435C457.756 435.045 461.089 435.289 463.911 435.867C461.429 434.395 458.617 433.57 455.733 433.467C460.022 432.489 464.844 432.622 470.111 434.356C467.039 432.603 463.72 431.322 460.267 430.556C462.356 430.445 465.4 429.956 467.356 430.222C464.227 429.255 460.984 428.71 457.711 428.6C461.933 427.356 466.133 426.556 468.667 426.089C464.244 425.8 459.267 426.089 454.844 426.8C459.733 422.644 463.289 422.645 466.467 422.111C469.622 421.556 472 420.867 468.711 420.533C466.578 420.333 464.844 420.156 463.356 420.133C466.8 419.089 471.156 416.889 472.6 416.111C474.044 415.356 477.578 412.8 473.778 414.511C469.978 416.245 464.533 416.511 459.6 417.067C457.826 417.201 456.097 417.684 454.511 418.489C457.178 416.956 460.178 415.333 463.311 413.822C466.444 412.311 465.756 411.8 468.489 414.911C469.8 416.444 469.711 414.911 468 410.956C466.622 407.889 465.444 409.311 462.444 410.489C461.333 410.933 459.911 411.556 458.267 412.444C460 410.378 466 403.444 466.978 402.267C468.044 401.089 469.622 402.467 471.667 403.778C473.622 405.111 472.956 403.845 471.089 401.689C469.2 399.556 468.311 399.222 467.067 400.267C465.844 401.311 459.844 405.111 456.489 408.289C462.622 402.489 469.733 395.933 471.356 394.089C467.844 395.978 464.689 398.089 461.867 400.267C462.844 398.889 464.622 396.311 465.556 395.222C464.133 396.178 462.178 397.2 461.067 398.244C462.711 395.311 464.444 392.622 464.689 392.156C465.067 391.4 465.467 391.222 466.044 391.178L469.156 390.911C470.933 390.778 470.244 390.4 469.467 390.2C464.533 388.911 464.733 389.467 463.622 390.533C462.552 391.664 461.544 392.851 460.6 394.089C461.844 390.244 465.578 386.667 466.178 385.578C462.311 387.711 460.267 389.378 458.889 391.133C460.644 388.289 466.178 383.933 467.844 382.2C466.133 382.889 462.533 384.689 461.578 385.8C462.489 384.178 463.356 382.489 464.156 380.756C461.274 382.628 458.894 385.176 457.222 388.178C457.4 387.467 457.689 386.4 457.978 385.511C458.956 383.622 461.622 381.022 463 379.489C464.4 377.978 464.711 377.556 468.644 380.044C468.166 378.662 467.485 377.359 466.622 376.178C465.489 374.467 464.956 375.2 463.4 376.489C462.533 377.178 461.733 378.156 460.178 379.511C461.867 375.156 463.844 370.489 464.889 367.467C461.934 370.576 459.623 374.239 458.089 378.245C458.222 375.2 459.889 368.978 459.6 365.8C457.885 368.117 456.715 370.791 456.178 373.622C456.089 370.267 456.044 366.111 455.222 363.733C455.467 365.8 453.333 370.533 452.778 373.845C451.444 370.689 449.978 367.644 449.133 365.533C449.2 367.178 449.667 370.978 450.378 375.467C449.267 372.022 445.244 368.422 445.111 365.667C445 369.667 447.889 376.445 448.2 378.378C448.244 379 448.489 379.933 448.711 381C447.333 378.778 444.044 374.778 443.178 372.156C443.178 373.8 443.8 376.689 444.111 378.489C442.378 376.889 441.156 377.822 438.222 383.356C439.178 383.067 440.289 381.845 441.111 381.289C441.933 380.733 442.711 380.133 443.6 381.556C444.711 383.378 447.711 387.556 449.333 392.889C448.867 391.356 446.089 387.756 445.111 386.178C445.333 386.933 445.822 389.422 446.156 390.867C445.22 388.176 443.975 385.603 442.444 383.2C442.356 385 443.689 390.067 443.889 392.2C443.111 390.356 442.244 388.733 441.556 387.356C442.067 388.778 442.822 393.845 442.733 396.445C441.769 394.738 440.716 393.084 439.578 391.489C440.289 393.578 440.889 397.711 441 400.089C440.696 399.466 440.362 398.858 440 398.267C438.622 396.045 437.711 400.067 436.889 402.133C436.044 404.2 436.489 403.911 437.444 402.489C438.889 400.289 438.711 400.578 439.556 402.978C440.089 404.4 441.578 407.8 442.8 412.245C441.6 410.289 439.933 407.689 439.044 405.756C438.133 403.822 438.067 403.933 439.044 407.778C439.667 410.289 441.244 414.956 440.6 419.933C439.633 416.447 438.528 413 437.289 409.6C437.467 411.756 437.733 415.845 437.733 417.578C437.264 416.663 436.64 415.836 435.889 415.133C436.8 418.045 437.022 423.089 437.022 426.245C436.622 424.475 435.995 422.764 435.156 421.156C435.235 424.56 435.614 427.951 436.289 431.289C435.841 429.458 435.169 427.689 434.289 426.022C434.756 428.6 434.911 432.844 434.156 435.6C433.971 434.162 433.613 432.752 433.089 431.4C432.867 432.689 432.556 436.444 431.644 438.067C432.092 436.115 432.212 434.102 432 432.111C431.376 434.534 430.49 436.881 429.356 439.111C429.689 437.889 430.156 435.556 430.289 433.245C429.978 434.689 429 435.867 428.467 437.111C428.733 435.067 428.8 433.356 428.711 432.556C427.739 435.703 426.202 438.647 424.178 441.245C425.244 438.445 425.533 435.467 425.533 433.667C423.756 436.8 423.6 438.133 420.778 441.867C421.886 439.638 422.207 437.101 421.689 434.667C421.467 435.467 420.489 437.778 419.067 440.267C418.845 437.773 419.07 435.259 419.733 432.845C418.511 433.667 416.844 436.044 416.844 437.822C416.494 436.143 415.73 434.577 414.622 433.267C415.578 439.445 415.222 444.822 411.511 447.289C403.244 452.711 396.244 464.733 386.133 469.2C387.311 469.99 388.386 470.923 389.333 471.978C399 467.711 405.511 458.089 413 452.711C416.556 450.8 424.711 455.089 433.711 452.756C437.178 451.867 443.933 453.867 446.956 455.111C445.533 453.178 442.8 451.622 437.933 450.667Z" fill="#549334"/>
<path d="M368.333 444.422C370 444.133 374.556 444.178 378.178 444.778C375.778 443.867 377.311 438.156 374.4 436.022C377.378 437.4 378.644 436.911 380.222 437.178L380.778 437.333C380.653 436.192 380.895 435.04 381.467 434.044C381.867 435.555 383.533 435.889 384.978 437C385.2 437.156 385.444 437.378 385.711 437.622C385.778 435.822 388.378 433.467 388.667 432.289C389.222 433.889 390.689 435.022 391.222 437.289C392.6 443.111 388.044 444.333 389.711 448.489C397.978 453.911 405.333 464.733 415.422 469.222C414.247 470.007 413.179 470.941 412.244 472C398.844 466.067 390.2 448.889 377.933 448.044L377 448.422C373.956 449.889 371.111 451 368.422 450.422C365.898 450.072 363.328 450.539 361.089 451.756C364.489 446.489 366.244 444.978 368.333 444.422C365.85 445.361 363.119 445.416 360.6 444.578C359.089 448.244 355.533 449.289 352.356 449.689C349.178 450.133 346.844 451.4 345.844 453.155C345.53 451.427 345.606 449.651 346.067 447.956C344.389 447.741 342.689 447.779 341.022 448.067C342.911 447.333 344.622 441.978 349.244 441.333C348.359 440.756 347.59 440.017 346.978 439.155C348.067 439.778 349.044 439.089 351.044 438.556C352.372 438.217 353.741 438.067 355.111 438.111C353.599 437.001 352.522 435.398 352.067 433.578C350.644 437.889 345.933 439.044 343.156 439.244C339.822 439.467 338.244 440.555 337.622 441.467C337.622 439.422 338.289 437.755 339.044 436.644C337.667 436.778 336.4 436.822 335.689 437.111C335.854 435.879 336.278 434.695 336.933 433.638C337.588 432.581 338.459 431.674 339.489 430.978C337.467 430.511 334.667 426.956 334.511 424.422C336.111 426.267 342.667 424.355 345.867 427.933C344.915 427.15 344.135 426.179 343.573 425.083C343.011 423.986 342.68 422.785 342.6 421.555C343.333 422.533 344.911 422.556 346.467 423.444C344.311 415.622 338.889 417.378 335.689 414.889C331.622 411.689 333.267 406.156 330.022 403.533C331.444 403.533 332.622 403.622 333.578 403.867C332.889 402.178 332.911 398.844 332.978 396.844C333.756 399.333 336.511 399 338.244 401.422C338.544 400.793 338.66 400.092 338.578 399.4C339.822 400.889 340.978 402.178 341.711 403.555C341.489 400.933 342.556 399.4 343.356 398.689C343.289 399.622 343.556 401.889 344.6 403.955C345.644 406.022 346.044 408.378 345.267 412.178C344.556 415.778 346.022 418.556 347.867 421.2C348.067 419.622 347.844 415.022 347.356 413.578C346.867 412.133 346.644 409.711 347.133 407C347.422 408.111 348.711 409.711 350.111 411.067C350.477 411.457 350.744 411.929 350.889 412.444C351.333 411.467 351.622 410.711 351.956 409.889C352.4 408.644 346.644 406.556 346.956 400.067C343.089 397.911 339.6 395.044 338.644 389.867C339.28 390.367 340.003 390.744 340.778 390.978C338.644 387.8 338.089 383.778 338.844 381.778C339.356 383.444 341.044 383.867 342.867 385.156C343.311 381.711 339.667 379.222 339.756 375.911C339.889 370.667 342.644 370.6 343.6 367.333C344.307 368.424 344.882 369.595 345.311 370.822C345.933 368.622 348.6 366.978 348.644 365.311C350.022 367.311 351.044 369.556 350.289 371.822C351.126 371.575 352.006 371.506 352.871 371.621C353.736 371.736 354.568 372.032 355.311 372.489C351.933 373.111 352.133 377.178 349.911 378.222C347.689 379.267 343.533 382.178 344.578 386.578C345.956 388.089 347.244 390.511 347.978 394.667C348.644 395.311 349.244 396.111 349.667 397.044C350.277 396.006 350.769 394.903 351.133 393.755C350.933 392.022 348.644 390.111 348.022 388.422C347.178 386.178 349.178 382.755 348.378 379.711C349.467 380.133 351.333 380.822 352.644 382.489C353.667 380.089 355.644 378.578 355.689 374.555C356.511 376.133 357.2 377.867 357.644 379.578C359.145 377.545 361.243 376.03 363.644 375.244C362.044 378 362.6 380.711 362.533 383C362.467 385.267 362.4 389.089 359.089 391.622C355.778 394.2 354.911 394.889 354.2 401.356C355.6 398.311 358.956 395.956 359.089 394.333C359.778 397.222 360.333 399.444 360.244 401.422C361.356 400.111 363.356 399.378 365.711 399.267C364.044 401.178 362.8 408.711 358.378 409.6C353.978 410.511 352.2 414.978 351 416.8C349.489 419.089 349.111 420.844 350.622 423.867C350.538 421.613 350.947 419.368 351.822 417.289C353.289 414.355 356.444 413.133 356.644 411.067C357.047 412.823 357.233 414.621 357.2 416.422C359.422 411.933 364.111 413.222 365.422 411.911C364.236 413.451 363.45 415.26 363.133 417.178C362.839 418.48 362.244 419.696 361.395 420.726C360.546 421.757 359.467 422.574 358.244 423.111C356.2 424.089 354.422 424.244 353.356 426.356C353.089 427.6 354.156 428.644 354.156 430.533C354.233 429.903 354.445 429.297 354.778 428.756C356.044 426.933 356.867 425.555 356.867 424.533C359.644 427.289 360.244 430 359.356 432.889C358.467 435.822 357.8 438.178 359.6 440.489C360.615 441.358 361.794 442.015 363.067 442.422C364.533 440.956 362.822 439.178 361.156 437.444C359.489 435.733 359.644 431.667 361.022 430C362.4 428.289 363.6 426.533 363.511 425.022C364.533 425.911 365.644 427.533 365.978 428.422C366.414 427.15 367.238 426.047 368.333 425.267C368.556 427.689 370.133 428.8 370.133 431.422C370.437 430.634 370.902 429.919 371.499 429.322C372.097 428.724 372.812 428.259 373.6 427.955C373.244 429.289 374.467 431.311 374.644 432.578C374.773 433.727 374.605 434.89 374.156 435.955C373.865 436.761 373.417 437.5 372.837 438.13C372.257 438.76 371.557 439.267 370.778 439.622C370.133 439.933 369.133 440.244 368.133 440.711C370.489 440.4 374.778 441.178 375.756 442.933C374 442.267 370.2 443.667 368.333 444.422Z" fill="#549334"/>
<path d="M402.667 459.711C402.222 459.311 401.578 459.133 400.489 459.133C399.422 459.133 398.778 459.333 398.333 459.711C393.978 458.222 391.156 458.867 391.156 460.222V464.4C391.156 465.111 392.756 466 398.644 464.578C399.089 464.844 399.556 465.067 400.489 465.067C401.444 465.067 401.978 464.844 402.422 464.533V464.556C408.333 466 409.933 465.089 409.933 464.378V460.2C409.933 458.822 407.089 458.156 402.667 459.711Z" fill="#CE1225"/>
<path d="M409.489 459.533C411.304 459.667 413.088 460.08 414.778 460.755C414.475 462.409 414.259 464.078 414.133 465.755C412.708 464.942 411.138 464.414 409.511 464.2L409.489 459.533ZM391.6 459.533C389.785 459.67 388.002 460.082 386.311 460.755C386.533 461.667 386.978 465 386.978 465.755C388.395 464.942 389.958 464.414 391.578 464.2L391.6 459.533Z" fill="#CE1225"/>
<path d="M400.489 455.222C413.089 455.222 423.222 455.978 431.289 457.711C430.311 458.467 429.444 459.467 428.8 459.955C428.067 460.578 428.333 462.311 430 463.8C431.401 464.79 433.035 465.397 434.743 465.56C436.45 465.724 438.17 465.439 439.733 464.733L442.044 463.711C440.911 464.667 439.978 465.933 440.489 467.111C442.867 472.422 452.022 465.444 457.489 472.133C458.956 470.267 462.622 466.378 464.133 464.933C461.022 461.155 456.689 461.778 453.111 462.067C454.422 459.911 454.556 458.267 451.689 456.222C450.533 455.378 446.511 455.511 442.822 457.178C443.489 455.444 443.378 452.6 437.667 450.089C428.956 446.178 414.178 445.378 400.511 445.378C386.822 445.378 372.022 446.178 363.311 450.089C357.6 452.6 357.467 455.444 358.178 457.178C354.444 455.511 350.467 455.378 349.267 456.222C346.422 458.267 346.578 459.911 347.889 462.067C344.289 461.778 339.956 461.155 336.844 464.933C338.356 466.4 342.044 470.267 343.467 472.133C348.933 465.422 358.111 472.422 360.467 467.111C361 465.911 360.067 464.667 358.956 463.711L361.244 464.733C362.807 465.441 364.528 465.728 366.236 465.564C367.943 465.4 369.578 464.792 370.978 463.8C372.644 462.311 372.911 460.578 372.178 459.955C371.511 459.467 370.689 458.467 369.667 457.711C377.733 456 387.867 455.222 400.489 455.222Z" fill="#CE1225"/>
</g>
<defs>
<clipPath id="clip0_6_152">
<rect width="800" height="800" fill="white"/>
</clipPath>
</defs>
</svg>
