<svg width="800" height="800" viewBox="0 0 800 800" fill="none" xmlns="http://www.w3.org/2000/svg">
<path d="M800 600C800 623.575 790.635 646.184 773.965 662.854C757.295 679.524 734.686 688.889 711.111 688.889H88.8889C65.3141 688.889 42.7049 679.524 26.035 662.854C9.36505 646.184 0 623.575 0 600V200C0 176.425 9.36505 153.816 26.035 137.146C42.7049 120.476 65.3141 111.111 88.8889 111.111H711.111C734.686 111.111 757.295 120.476 773.965 137.146C790.635 153.816 800 176.425 800 200V600Z" fill="#EEEEEE"/>
<path d="M476.467 290.778C447.499 270.499 411.662 262.557 376.839 268.7C342.016 274.843 311.059 294.567 290.778 323.533C281.201 338.031 277.661 355.693 280.91 372.762C284.159 389.83 293.942 404.957 308.175 414.922C322.408 424.886 339.969 428.903 357.119 426.116C374.269 423.329 389.654 413.959 400 400C405.022 392.828 411.408 386.716 418.793 382.012C426.177 377.309 434.416 374.105 443.038 372.585C451.661 371.066 460.498 371.259 469.046 373.155C477.593 375.05 485.684 378.611 492.856 383.633C500.027 388.656 506.139 395.041 510.843 402.426C515.547 409.81 518.75 418.049 520.27 426.671C521.79 435.294 521.596 444.131 519.701 452.679C517.805 461.226 514.245 469.317 509.222 476.489C519.267 462.145 526.388 445.962 530.178 428.866C533.968 411.769 534.353 394.094 531.311 376.848C528.269 359.603 521.86 343.126 512.45 328.358C503.04 313.59 490.813 300.82 476.467 290.778Z" fill="#C60C30"/>
<path d="M492.844 383.645C478.363 373.503 460.447 369.528 443.035 372.596C425.624 375.663 410.144 385.52 400 400C389.679 414.032 374.278 423.47 357.09 426.294C339.902 429.118 322.29 425.105 308.022 415.113C293.754 405.121 283.962 389.943 280.739 372.825C277.517 355.707 281.12 338.007 290.778 323.511C280.44 337.84 273.053 354.08 269.047 371.288C265.04 388.496 264.494 406.329 267.439 423.75C270.384 441.171 276.763 457.833 286.203 472.768C295.644 487.702 307.959 500.612 322.432 510.746C336.906 520.879 353.249 528.036 370.512 531.798C387.775 535.561 405.614 535.855 422.991 532.664C440.369 529.472 456.939 522.858 471.739 513.207C486.538 503.556 499.272 491.06 509.2 476.445C514.223 469.279 517.785 461.193 519.682 452.65C521.579 444.107 521.773 435.273 520.254 426.655C518.735 418.037 515.533 409.802 510.83 402.422C506.126 395.042 500.015 388.661 492.844 383.645Z" fill="#003478"/>
<path d="M540.756 568.267L583.6 517.2L600.622 531.489L557.778 582.556L540.756 568.267ZM597.867 500.2L640.711 449.155L657.733 463.444L614.889 514.489L597.867 500.2ZM574.8 596.889L617.644 545.844L634.667 560.133L591.822 611.178L574.8 596.889ZM631.956 528.755L674.844 477.711L691.867 492.022L648.978 543.044L631.956 528.755ZM608.822 625.467L651.711 574.422L668.711 588.711L625.844 639.755L608.822 625.467ZM665.955 557.355L708.778 506.244L725.822 520.533L683 571.644L665.955 557.355ZM666.044 242.644L683.067 228.355L725.956 279.444L708.911 293.733L666.044 242.644ZM608.889 174.511L625.911 160.222L668.755 211.311L651.711 225.578L608.889 174.511ZM574.822 203.133L591.844 188.844L691.844 308L674.822 322.289L574.822 203.133ZM540.778 231.667L557.822 217.378L600.644 268.444L583.622 282.711L540.778 231.667ZM597.889 299.778L614.911 285.489L657.8 336.533L640.8 350.822L597.889 299.778ZM142.222 463.422L159.244 449.133L259.222 568.311L242.178 582.6L142.222 463.422ZM108.222 492L125.222 477.733L168.089 528.8L151.044 543.089L108.222 492ZM165.267 560.133L182.289 545.844L225.178 596.889L208.156 611.178L165.267 560.133ZM74.1333 520.555L91.1555 506.267L191.156 625.422L174.111 639.711L74.1333 520.555ZM74.1111 279.4L174.067 160.244L191.111 174.511L91.1111 293.689L74.1111 279.4ZM108.156 308L208.156 188.822L225.178 203.111L125.178 322.267L108.156 308ZM142.222 336.556L242.222 217.378L259.244 231.667L159.244 350.844L142.222 336.556Z" fill="#292F33"/>
</svg>
