<svg width="800" height="800" viewBox="0 0 800 800" fill="none" xmlns="http://www.w3.org/2000/svg">
<path d="M800 600C800 623.575 790.635 646.184 773.965 662.854C757.295 679.524 734.686 688.889 711.111 688.889H88.8889C65.3141 688.889 42.7049 679.524 26.035 662.854C9.36505 646.184 0 623.575 0 600V200C0 176.425 9.36505 153.816 26.035 137.146C42.7049 120.476 65.3141 111.111 88.8889 111.111H711.111C734.686 111.111 757.295 120.476 773.965 137.146C790.635 153.816 800 176.425 800 200V600Z" fill="#E30917"/>
<path d="M355.556 533.333C320.193 533.333 286.28 519.286 261.275 494.281C236.27 469.276 222.222 435.362 222.222 400C222.222 364.638 236.27 330.724 261.275 305.719C286.28 280.714 320.193 266.667 355.556 266.667C384.667 266.667 411.556 276.111 433.489 291.956C418.197 274.561 399.372 260.626 378.269 251.081C357.167 241.536 334.272 236.599 311.111 236.6C267.775 236.6 226.213 253.815 195.57 284.459C164.926 315.102 147.711 356.664 147.711 400C147.708 421.46 151.933 442.71 160.143 462.537C168.353 482.365 180.389 500.38 195.562 515.556C210.735 530.731 228.75 542.769 248.576 550.982C268.402 559.195 289.651 563.422 311.111 563.422C359.889 563.422 403.556 541.933 433.489 508.045C410.835 524.495 383.553 533.348 355.556 533.333ZM442.511 405.111L496.733 417.6L501.622 473L530.245 425.311L584.467 437.778L547.933 395.822L576.533 348.111L525.356 369.889L488.822 327.911L493.711 383.333L442.511 405.111Z" fill="#EEEEEE"/>
</svg>
