<svg width="800" height="800" viewBox="0 0 800 800" fill="none" xmlns="http://www.w3.org/2000/svg">
<path d="M88.8889 111.111C65.3141 111.111 42.7049 120.476 26.035 137.146C9.36505 153.816 0 176.425 0 200L0 600C0 623.575 9.36505 646.184 26.035 662.854C42.7049 679.524 65.3141 688.889 88.8889 688.889H222.222V111.111H88.8889ZM711.111 111.111H577.778V688.889H711.111C734.686 688.889 757.295 679.524 773.965 662.854C790.635 646.184 800 623.575 800 600V200C800 176.425 790.635 153.816 773.965 137.146C757.295 120.476 734.686 111.111 711.111 111.111Z" fill="#D52B1E"/>
<path d="M222.222 111.111H577.778V688.889H222.222V111.111Z" fill="#EEEEEE"/>
<path d="M413.667 491.4C440.289 494.489 464.156 497.267 490.756 500.311L483.978 478.044C483.479 476.128 483.548 474.109 484.175 472.231C484.802 470.353 485.961 468.698 487.511 467.467L564.822 404.489L548.822 396.956C541.778 394.444 543.711 390.467 546.267 380.911L558.067 337.889L513.156 347.378C508.778 348.044 505.867 345.267 505.2 342.6L499.4 322.356L463.889 362.222C458.844 368.622 448.622 368.622 451.8 353.867L466.978 273.111L446.6 283.667C440.889 286.867 435.178 287.4 432 281.689L403.889 229.111L375.778 281.689C372.578 287.4 366.867 286.867 361.156 283.667L340.8 273.111L355.978 353.867C359.178 368.622 348.933 368.622 343.889 362.222L308.378 322.378L302.6 342.622C301.933 345.289 299 348.067 294.622 347.4L249.711 337.911L261.511 380.933C264.022 390.489 265.978 394.467 258.933 396.978L242.933 404.511L320.244 467.489C323.311 469.867 324.867 474.156 323.756 478.067L316.978 500.333L394.089 491.422C396.444 491.422 398 492.733 397.978 495.444L393.222 577.756H414.467L409.733 495.444C409.778 492.711 411.311 491.4 413.667 491.4Z" fill="#D52B1E"/>
</svg>
