<svg width="800" height="800" viewBox="0 0 800 800" fill="none" xmlns="http://www.w3.org/2000/svg">
<path d="M800 600C800 623.575 790.635 646.184 773.965 662.854C757.295 679.524 734.686 688.889 711.111 688.889H88.8889C65.3141 688.889 42.7049 679.524 26.035 662.854C9.36505 646.184 0 623.575 0 600V200C0 176.425 9.36505 153.816 26.035 137.146C42.7049 120.476 65.3141 111.111 88.8889 111.111H711.111C734.686 111.111 757.295 120.476 773.965 137.146C790.635 153.816 800 176.425 800 200V600Z" fill="#75AADB"/>
<path d="M0 288.889H800V511.111H0V288.889Z" fill="#EEEEEE"/>
<path d="M400 288.889L410.844 345.511L442.533 297.356L430.867 353.8L478.556 321.422L446.178 369.133L502.644 357.489L454.489 389.156L511.111 400L454.489 410.844L502.644 442.533L446.178 430.867L478.556 478.556L430.867 446.178L442.533 502.644L410.844 454.489L400 511.111L389.156 454.489L357.489 502.644L369.133 446.178L321.422 478.556L353.8 430.867L297.356 442.533L345.511 410.844L288.889 400L345.511 389.156L297.356 357.489L353.8 369.133L321.422 321.422L369.133 353.8L357.489 297.356L389.156 345.511L400 288.889Z" fill="#FCBF49"/>
<path d="M400 318.444L405.378 346.556L407.956 360L415.489 348.578L431.222 324.667L425.422 352.689L422.644 366.111L433.978 358.422L457.667 342.356L441.6 366.044L433.911 377.378L447.311 374.6L475.356 368.822L451.444 384.556L440 392.044L453.444 394.622L481.556 400L453.444 405.378L440 407.956L451.422 415.489L475.333 431.222L447.289 425.422L433.867 422.644L441.556 433.978L457.622 457.644L433.956 441.578L422.622 433.889L425.4 447.311L431.2 475.356L415.467 451.444L407.956 440L405.378 453.444L400 481.556L394.622 453.444L392.044 440L384.511 451.444L368.778 475.356L374.556 447.311L377.333 433.911L366 441.6L342.311 457.667L358.378 433.978L366.067 422.644L352.644 425.422L324.622 431.222L348.533 415.489L359.956 407.956L346.511 405.378L318.444 400L346.556 394.622L360 392.044L348.556 384.511L324.644 368.778L352.667 374.556L366.067 377.333L358.378 366L342.289 342.311L365.978 358.4L377.311 366.089L374.533 352.689L368.756 324.667L384.489 348.578L392.022 360.022L394.6 346.578L400 318.444ZM400 288.889L389.156 345.511L357.489 297.356L369.133 353.822L321.422 321.444L353.8 369.156L297.356 357.511L345.511 389.178L288.889 400L345.511 410.844L297.356 442.533L353.8 430.867L321.422 478.556L369.133 446.178L357.489 502.644L389.156 454.489L400 511.111L410.844 454.489L442.533 502.644L430.867 446.178L478.556 478.556L446.178 430.867L502.644 442.533L454.489 410.844L511.111 400L454.489 389.156L502.644 357.489L446.178 369.133L478.556 321.422L430.867 353.8L442.533 297.333L410.844 345.489L400 288.889Z" fill="#843511"/>
<path d="M400 444.445C424.546 444.445 444.444 424.546 444.444 400C444.444 375.454 424.546 355.556 400 355.556C375.454 355.556 355.556 375.454 355.556 400C355.556 424.546 375.454 444.445 400 444.445Z" fill="#FCBF49"/>
<path d="M400 447.222C373.956 447.222 352.778 426.044 352.778 400C352.778 373.956 373.956 352.778 400 352.778C426.044 352.778 447.222 373.956 447.222 400C447.222 426.044 426.044 447.222 400 447.222ZM400 358.333C377.022 358.333 358.333 377.022 358.333 400C358.333 422.978 377.022 441.667 400 441.667C422.978 441.667 441.667 422.978 441.667 400C441.667 377.022 422.978 358.333 400 358.333Z" fill="#843511"/>
<path d="M395.578 394.978C395.578 398.422 389.778 401.2 382.622 401.2C375.445 401.2 369.645 398.422 369.645 394.978C369.645 391.533 375.445 388.756 382.622 388.756C389.778 388.756 395.578 391.533 395.578 394.978ZM430.089 394.444C430.089 390.867 424.178 387.956 416.889 387.956C409.6 387.956 403.689 390.844 403.689 394.444C403.689 398.044 409.6 400.933 416.889 400.933C424.2 400.933 430.089 398.022 430.089 394.444Z" fill="#C16540"/>
<path d="M388.067 419.422C388.067 416.622 393.533 414.333 400.244 414.333C406.978 414.333 412.422 416.6 412.422 419.422C412.422 422.222 406.956 424.511 400.244 424.511C393.511 424.511 388.067 422.222 388.067 419.422Z" fill="#ED8662"/>
</svg>
