<svg width="800" height="800" viewBox="0 0 800 800" fill="none" xmlns="http://www.w3.org/2000/svg">
<path d="M800 600C800 623.575 790.635 646.184 773.965 662.854C757.295 679.524 734.686 688.889 711.111 688.889H88.8889C65.3141 688.889 42.7049 679.524 26.035 662.854C9.36505 646.184 0 623.575 0 600V200C0 176.425 9.36505 153.816 26.035 137.146C42.7049 120.476 65.3141 111.111 88.8889 111.111H711.111C734.686 111.111 757.295 120.476 773.965 137.146C790.635 153.816 800 176.425 800 200V600Z" fill="#E8112D"/>
<path d="M410.511 266.356C410.822 243.133 431.4 227.156 432.267 196.222C447 214.756 422.645 249.489 431.289 269.645C435.245 246.778 458.022 234.2 463.756 203.8C475.422 224.422 445.911 254.911 451.289 276.156C458.756 254.156 483.245 245.333 493.645 216.178C501.933 238.378 468.045 263.867 470.045 285.689C480.845 265.156 506.422 260.267 521.267 233.089C526 256.311 488.489 276.178 487.067 298.067C500.956 279.467 527 278.622 545.889 254.111C546.933 277.8 506.778 291.533 501.956 312.933C518.578 296.733 544.4 299.978 566.889 278.711C564.244 302.267 522.444 309.578 514.289 329.956C533.267 316.556 558.289 323.8 583.822 306.333C577.533 329.178 535.089 329.867 523.889 348.711C544.689 338.445 568.244 349.511 596.244 336.244C586.444 357.8 544.378 351.844 530.356 368.711C552.533 361.822 574.111 376.467 603.8 367.733C590.689 387.511 550.156 375.022 533.667 389.489C556.622 386.156 575.645 403.956 606.311 400C590.333 417.489 552.2 398.822 533.667 410.511C556.889 410.822 572.867 431.422 603.756 432.245C585.222 447.045 550.511 422.6 530.356 431.289C553.267 435.245 565.822 458.022 596.244 463.756C575.622 475.422 545.111 445.911 523.845 451.289C545.845 458.756 554.711 483.245 583.822 493.645C561.645 501.978 536.178 468.045 514.289 470.045C534.867 480.845 539.778 506.422 566.889 521.267C543.667 526 523.822 488.489 501.911 487.067C520.533 500.956 521.356 527 545.889 545.889C522.222 546.933 508.422 506.778 487.067 501.956C503.267 518.578 500 544.4 521.267 566.889C497.689 564.244 490.4 522.444 470.045 514.289C483.422 533.267 476.156 558.289 493.645 583.822C470.778 577.533 470.111 535.089 451.289 523.889C461.578 544.689 450.467 568.244 463.756 596.244C442.178 586.444 448.133 544.378 431.289 530.356C438.156 552.533 423.556 574.111 432.267 603.8C412.489 590.689 424.978 550.156 410.511 533.667C413.844 556.622 396.045 575.645 400 606.311C382.511 590.333 401.178 552.2 389.489 533.667C389.178 556.889 368.6 572.867 367.733 603.756C352.956 585.267 377.356 550.511 368.689 530.356C364.756 553.267 341.956 565.822 336.244 596.244C324.578 575.622 354.089 545.111 348.689 523.889C341.222 545.845 316.733 554.711 306.333 583.822C298.022 561.645 331.956 536.178 329.956 514.289C319.133 534.867 293.556 539.778 278.733 566.889C274 543.667 311.511 523.822 312.933 501.956C299.045 520.533 273.022 521.356 254.133 545.889C253.067 522.222 293.245 508.422 298.067 487.067C281.445 503.267 255.6 500 233.111 521.267C235.778 497.689 277.6 490.4 285.711 470.045C266.756 483.422 241.733 476.156 216.2 493.645C222.511 470.778 264.956 470.111 276.156 451.289C255.333 461.578 231.778 450.511 203.8 463.756C213.622 442.178 255.645 448.133 269.667 431.289C247.489 438.156 225.956 423.556 196.245 432.245C209.311 412.511 249.889 424.956 266.356 410.511C243.378 413.844 224.4 396.022 193.711 400C209.711 382.533 247.822 401.178 266.356 389.489C243.156 389.178 227.178 368.6 196.245 367.733C214.778 352.956 249.511 377.356 269.667 368.689C246.778 364.756 234.222 341.956 203.822 336.244C224.445 324.556 254.933 354.089 276.178 348.689C254.178 341.222 245.356 316.733 216.2 306.333C238.4 298.022 263.889 331.956 285.711 329.956C265.156 319.133 260.289 293.556 233.111 278.733C256.333 274 276.2 311.511 298.089 312.933C279.489 299.045 278.645 273.022 254.133 254.133C277.8 253.089 291.556 293.245 312.956 298.067C296.756 281.445 300 255.6 278.733 233.111C302.267 235.778 309.6 277.6 329.978 285.711C316.556 266.756 323.822 241.756 306.356 216.2C329.2 222.511 329.889 264.956 348.733 276.156C338.467 255.333 349.533 231.778 336.267 203.822C357.822 213.622 351.867 255.645 368.733 269.667C361.845 247.489 376.489 225.956 367.756 196.245C387.533 209.311 375.045 249.889 389.511 266.356C386.156 243.378 403.978 224.4 400.022 193.711C417.489 209.689 398.822 247.822 410.511 266.356Z" fill="#FFCC4D"/>
<path d="M400.022 509.022C414.339 509.019 428.515 506.196 441.742 500.715C454.968 495.233 466.984 487.2 477.106 477.075C487.228 466.949 495.256 454.929 500.732 441.7C506.208 428.472 509.025 414.295 509.022 399.978C509.019 385.661 506.196 371.485 500.715 358.258C495.233 345.032 487.2 333.016 477.075 322.894C466.949 312.772 454.929 304.744 441.7 299.268C428.472 293.792 414.295 290.975 399.978 290.978C371.063 290.984 343.335 302.476 322.894 322.925C302.452 343.375 290.972 371.108 290.978 400.022C290.984 428.937 302.476 456.665 322.925 477.106C343.375 497.548 371.108 509.028 400.022 509.022Z" fill="#E8112D"/>
<path d="M400 298.911C427.822 298.911 452.822 310.822 470.222 329.867C442.911 332.622 419.756 339.067 400 348.867C380.244 339.067 357.067 332.622 329.8 329.867C338.697 320.099 349.538 312.299 361.628 306.968C373.717 301.637 386.787 298.893 400 298.911ZM392.822 352.733C390.644 353.947 388.495 355.215 386.378 356.533C368.667 347.133 347.444 341.067 322.222 339.267C323.373 337.639 324.581 336.053 325.844 334.511C352.044 336.845 374.156 343.111 392.822 352.733ZM407.244 352.733C409.444 353.956 411.578 355.222 413.667 356.533C431.4 347.133 452.6 341.067 477.822 339.267C476.679 337.639 475.479 336.053 474.222 334.511C448 336.845 425.911 343.111 407.244 352.733ZM319.044 344.156C318.037 345.792 317.08 347.459 316.178 349.156C339.644 349.689 359.333 355.111 375.511 364.045C377.201 362.768 378.92 361.53 380.667 360.333C363.778 351.111 343.356 345.356 319.044 344.156ZM316.156 438.778C307.978 424.711 304.956 411.4 304.956 393.978C304.956 379.756 308.022 366.333 313.578 354.267C336.289 354.111 355.289 359.067 370.8 367.689C347.844 386.511 329.2 408.556 316.156 438.778ZM361.267 480.733C357 479.089 352.356 474.445 348.4 472.222C350.644 436.511 367.356 407.133 390.644 382.422C392.378 384.111 394.044 385.8 395.644 387.6C374 412.911 360.089 445.756 361.267 480.733ZM481.022 344.156C482.022 345.778 482.978 347.445 483.889 349.156C460.4 349.689 440.711 355.111 424.556 364.045C422.862 362.763 421.136 361.525 419.378 360.333C436.289 351.111 456.689 345.356 481.022 344.156Z" fill="#FFCC4D"/>
<path d="M483.889 438.8C492.044 424.733 495.089 411.4 495.089 393.978C495.089 379.756 492 366.333 486.444 354.267C463.755 354.111 444.733 359.067 429.222 367.689C452.222 386.511 470.889 408.578 483.889 438.8ZM400.022 395.733C417.067 423.156 420.333 453.156 419.4 487.045C412 488.867 408 489.045 400.022 489.045C392.044 489.045 388.044 488.867 380.644 487.045C379.711 454.889 382.978 424.2 400.022 395.733ZM438.667 480.733C442.911 479.089 447.689 475.822 451.644 473.622C449.4 437.911 432.667 407.133 409.378 382.444C407.662 384.116 406.002 385.842 404.4 387.622C426.089 412.911 439.844 445.756 438.667 480.733ZM384.978 377.356C382.878 375.62 380.706 373.974 378.467 372.422C354.355 393.8 336.444 418.645 326.4 452.311C330.111 456.556 330.044 459.689 334.444 463.2C340.667 427.8 360.822 400.711 384.978 377.356ZM415.089 377.356C417.111 375.689 419.4 373.933 421.6 372.422C445.711 393.8 463.555 419.089 473.622 452.778C469.889 457.022 469.355 459.711 464.911 463.222C458.711 427.8 439.244 400.711 415.089 377.356ZM400.022 356.756C401.222 357.467 405.333 360.045 406.378 360.733C404.755 361.733 401.044 364.245 400.022 364.933C397.937 363.483 395.818 362.083 393.667 360.733C394.711 360.045 398.822 357.445 400.022 356.756ZM388 364.689C386.378 365.911 383.911 367.8 382.978 368.6C385.311 370.133 388.444 372.511 389.444 373.289C390.667 372.245 393.067 370.111 394.422 369.133C392.346 367.56 390.203 366.077 388 364.689ZM412.044 364.689C413.667 365.911 416.133 367.8 417.067 368.6C414.86 370.092 412.704 371.656 410.6 373.289C409.4 372.245 406.978 370.111 405.622 369.133C407.289 367.911 410.8 365.378 412.044 364.689ZM400.022 373.556C401.067 374.444 404.155 377.178 404.978 378C403.251 379.521 401.597 381.123 400.022 382.8C398.46 381.117 396.814 379.515 395.089 378C395.889 377.178 399 374.467 400.022 373.556Z" fill="#FFCC4D"/>
</svg>
