<svg width="800" height="800" viewBox="0 0 800 800" fill="none" xmlns="http://www.w3.org/2000/svg">
<path d="M800 600C800 623.575 790.635 646.184 773.965 662.854C757.295 679.524 734.686 688.889 711.111 688.889H88.8889C65.3141 688.889 42.7049 679.524 26.035 662.854C9.36505 646.184 0 623.575 0 600V200C0 176.425 9.36505 153.816 26.035 137.146C42.7049 120.476 65.3141 111.111 88.8889 111.111H711.111C734.686 111.111 757.295 120.476 773.965 137.146C790.635 153.816 800 176.425 800 200V600Z" fill="#EEEEEE"/>
<path d="M400 555.555C485.911 555.555 555.555 485.911 555.555 400C555.555 314.089 485.911 244.444 400 244.444C314.089 244.444 244.444 314.089 244.444 400C244.444 485.911 314.089 555.555 400 555.555Z" fill="#ED1B2F"/>
</svg>
