<svg width="800" height="800" viewBox="0 0 800 800" fill="none" xmlns="http://www.w3.org/2000/svg">
<path d="M344.444 688.889H711.111C760.2 688.889 800 649.089 800 588.889V455.556H344.444V688.889ZM711.111 111.111H344.444V344.445H800V200C800 176.425 790.635 153.816 773.965 137.146C757.295 120.476 734.686 111.111 711.111 111.111ZM233.333 111.111H88.8889C65.3256 111.111 42.7265 120.467 26.0585 137.123C9.39053 153.778 0.0176724 176.37 0 199.934L0 344.445H233.333V111.111ZM0 455.556V588.978C0.0444444 649.134 39.8222 688.889 88.8889 688.889H233.333V455.556H0Z" fill="#006AA7"/>
<path d="M344.444 111.111H233.333V344.445H0V455.556H233.333V688.889H344.444V455.556H800V344.445H344.444V111.111Z" fill="#FECC00"/>
</svg>
