<svg width="800" height="800" viewBox="0 0 800 800" fill="none" xmlns="http://www.w3.org/2000/svg">
<path d="M288.889 111.111H88.8889C65.3141 111.111 42.7049 120.476 26.035 137.146C9.36505 153.816 0 176.425 0 200L0 400H288.889V111.111ZM185.267 317.6L143.444 287.222L101.622 317.6L117.6 268.444L75.7778 238.044H127.467L143.444 188.889L159.422 238.044H211.111L169.289 268.444L185.267 317.6Z" fill="#1F429B"/>
<path d="M711.111 111.111H288.889V400H800V200C800 176.425 790.635 153.816 773.965 137.146C757.295 120.476 734.686 111.111 711.111 111.111Z" fill="#EEEEEE"/>
<path d="M0 400V600C0 623.575 9.36505 646.184 26.035 662.854C42.7049 679.524 65.3141 688.889 88.8889 688.889H711.111C734.686 688.889 757.295 679.524 773.965 662.854C790.635 646.184 800 623.575 800 600V400H0Z" fill="#D42D27"/>
<path d="M159.422 238.044L143.444 188.889L127.467 238.044H75.7778L117.6 268.444L101.622 317.6L143.444 287.222L185.267 317.6L169.289 268.444L211.111 238.044H159.422Z" fill="white"/>
</svg>
