<svg width="800" height="800" viewBox="0 0 800 800" fill="none" xmlns="http://www.w3.org/2000/svg">
<path d="M787.667 155.556C772.267 129.089 743.933 111.111 711.111 111.111H400V155.556H787.667ZM0 555.556H800V600H0V555.556ZM400 377.778H800V422.222H400V377.778ZM400 288.889H800V333.333H400V288.889ZM0 466.667H800V511.111H0V466.667ZM88.8889 688.889H711.111C743.933 688.889 772.267 670.911 787.667 644.444H12.3333C27.7333 670.911 56.0667 688.889 88.8889 688.889ZM400 200H800V244.444H400V200Z" fill="#B22334"/>
<path d="M1.51111 615.089C1.88889 617.156 2.31111 619.222 2.82222 621.245C3.4 623.489 4.11111 625.645 4.86667 627.822C6.84444 633.578 9.24444 639.133 12.2667 644.333L12.3333 644.445H787.667L787.711 644.356C790.694 639.117 793.165 633.602 795.089 627.889C796.552 623.719 797.682 619.438 798.467 615.089C799.378 610.2 800 605.178 800 600H0C0 605.178 0.622222 610.178 1.51111 615.089ZM0 511.111H800V555.556H0V511.111ZM0 422.222V466.667H800V422.222H400H0ZM400 333.333H800V377.778H400V333.333ZM400 244.445H800V288.889H400V244.445ZM2.84444 178.756C3.4 176.489 4.17778 174.333 4.88889 172.156C4.11718 174.327 3.43512 176.529 2.84444 178.756ZM400 200H800C800 194.822 799.378 189.8 798.467 184.889C797.688 180.536 796.551 176.255 795.067 172.089C793.141 166.352 790.662 160.814 787.667 155.556H400V200Z" fill="#EEEEEE"/>
<path d="M400 111.111H88.8889C65.3141 111.111 42.7049 120.476 26.035 137.146C9.36505 153.816 0 176.425 0 200L0 422.222H400V111.111Z" fill="#3C3B6E"/>
<path d="M44.4668 171.689L58.2001 181.667L52.9557 197.778L66.6668 187.822L80.4001 197.778L75.1557 181.667L88.889 171.689H71.9112L66.6668 155.556L61.4446 171.689H44.4668ZM88.9112 216.133L102.645 226.111L97.4001 242.222L111.111 232.267L124.845 242.222L119.6 226.111L133.333 216.133H116.356L111.111 200L105.889 216.133H88.9112ZM177.8 216.133L191.533 226.111L186.289 242.222L200 232.267L213.733 242.222L208.489 226.111L222.222 216.133H205.245L200 200L194.778 216.133H177.8ZM266.689 216.133L280.422 226.111L275.178 242.222L288.889 232.267L302.622 242.222L297.378 226.111L311.111 216.133H294.133L288.889 200L283.667 216.133H266.689ZM88.9112 305.022L102.645 315L97.4001 331.111L111.111 321.156L124.845 331.111L119.6 315L133.333 305.022H116.356L111.111 288.889L105.889 305.022H88.9112ZM177.8 305.022L191.533 315L186.289 331.111L200 321.156L213.733 331.111L208.489 315L222.222 305.022H205.245L200 288.889L194.778 305.022H177.8ZM266.689 305.022L280.422 315L275.178 331.111L288.889 321.156L302.622 331.111L297.378 315L311.111 305.022H294.133L288.889 288.889L283.667 305.022H266.689ZM133.356 171.689L147.089 181.667L141.845 197.778L155.556 187.822L169.289 197.778L164.045 181.667L177.778 171.689H160.8L155.556 155.556L150.333 171.689H133.356ZM222.245 171.689L235.978 181.667L230.733 197.778L244.445 187.822L258.178 197.778L252.933 181.667L266.667 171.689H249.689L244.445 155.556L239.222 171.689H222.245ZM311.133 171.689L324.867 181.667L319.622 197.778L333.333 187.822L347.067 197.778L341.822 181.667L355.556 171.689H338.578L333.333 155.556L328.111 171.689H311.133ZM44.4668 260.578L58.2001 270.556L52.9557 286.667L66.6668 276.711L80.4001 286.667L75.1557 270.556L88.889 260.578H71.9112L66.6668 244.445L61.4446 260.578H44.4668ZM141.845 286.667L155.556 276.711L169.289 286.667L164.045 270.556L177.778 260.578H160.8L155.556 244.445L150.333 260.578H133.356L147.089 270.556L141.845 286.667ZM222.245 260.578L235.978 270.556L230.733 286.667L244.445 276.711L258.178 286.667L252.933 270.556L266.667 260.578H249.689L244.445 244.445L239.222 260.578H222.245ZM311.133 260.578L324.867 270.556L319.622 286.667L333.333 276.711L347.067 286.667L341.822 270.556L355.556 260.578H338.578L333.333 244.445L328.111 260.578H311.133ZM44.4668 349.467L58.2001 359.445L52.9557 375.556L66.6668 365.6L80.4001 375.556L75.1557 359.445L88.889 349.467H71.9112L66.6668 333.333L61.4446 349.467H44.4668ZM141.845 375.556L155.556 365.6L169.289 375.556L164.045 359.445L177.778 349.467H160.8L155.556 333.333L150.333 349.467H133.356L147.089 359.445L141.845 375.556ZM222.245 349.467L235.978 359.445L230.733 375.556L244.445 365.6L258.178 375.556L252.933 359.445L266.667 349.467H249.689L244.445 333.333L239.222 349.467H222.245ZM311.133 349.467L324.867 359.445L319.622 375.556L333.333 365.6L347.067 375.556L341.822 359.445L355.556 349.467H338.578L333.333 333.333L328.111 349.467H311.133Z" fill="white"/>
</svg>
