<svg width="800" height="800" viewBox="0 0 800 800" fill="none" xmlns="http://www.w3.org/2000/svg">
<path d="M711.111 111.111H88.8889C65.3141 111.111 42.7049 120.476 26.035 137.146C9.36505 153.816 0 176.425 0 200L0 600C0 623.575 9.36505 646.184 26.035 662.854C42.7049 679.524 65.3141 688.889 88.8889 688.889H711.111C734.686 688.889 757.295 679.524 773.965 662.854C790.635 646.184 800 623.575 800 600V200C800 176.425 790.635 153.816 773.965 137.146C757.295 120.476 734.686 111.111 711.111 111.111Z" fill="#C1272D"/>
<path d="M334.378 492.556L359.444 415.422L293.822 367.756H374.911L400 290.533L425.089 367.733H506.178L440.556 415.4L465.622 492.533L400 444.867L334.378 492.556ZM414 434.711L434.356 449.489L426.578 425.556L414 434.711ZM373.422 425.556L365.644 449.489L386 434.711L373.422 425.556ZM378.778 409.111L400 424.533L421.222 409.111L413.111 384.178H386.845L378.778 409.111ZM344.444 384.178L364.778 398.956L369.578 384.178H344.444ZM430.422 384.178L435.222 398.956L455.556 384.178H430.422ZM407.778 367.733L400 343.778L392.222 367.756L407.778 367.733Z" fill="#006233"/>
</svg>
