<svg width="800" height="800" viewBox="0 0 800 800" fill="none" xmlns="http://www.w3.org/2000/svg">
<path d="M800 600C800 623.575 790.635 646.184 773.965 662.854C757.295 679.524 734.686 688.889 711.111 688.889H88.8889C65.3141 688.889 42.7049 679.524 26.035 662.854C9.36505 646.184 0 623.575 0 600V200C0 176.425 9.36505 153.816 26.035 137.146C42.7049 120.476 65.3141 111.111 88.8889 111.111H711.111C734.686 111.111 757.295 120.476 773.965 137.146C790.635 153.816 800 176.425 800 200V600Z" fill="#032EA1"/>
<path d="M0 234.933H800V565.044H0V234.933Z" fill="#E01E24"/>
<path d="M600.467 508.822V488.778H588.422V468.755H577.4V455.733H572.378V445.711H562.645L557.356 438.133V402.6L563.378 396.578V363.511L558.356 368.022V357.489H554.333V362.511H546.356V346.444L536.822 354.978L539.845 344.2L534.311 319.4H531.289C531.289 319.4 528.822 308.867 523.8 308.867C523.8 308.867 525.8 302.378 521.778 302.378C517.756 302.378 518.756 307.378 518.756 307.378C518.756 307.378 511.756 310.4 511.756 317.889L507.756 317.4L501.733 346.444L505.978 354.978L496.2 346.444V368.511H443.111V348.467L440.089 351.467V358.489H433.089V351.467L438.111 346.956V337.444L434.067 341.689L428.045 333.422V326.4L424.556 329.889L423.533 323.889L428.556 315.889L427.8 309.378L422.067 316.378V310.378L424.578 304.867L413.045 275.778L410.289 267.733L406.045 267.244V263.222C406.045 263.222 403.022 256.222 399.022 256.222C395.022 256.222 392.022 263.222 392.022 263.222V267.244L387.778 267.733L385 275.778L373.489 304.867L376 310.378V316.378L370.245 309.378L369.467 315.889L374.489 323.889L373.511 329.889L370 326.4V333.422L364 341.689L359.978 337.444V346.956L365 351.467V358.489H358V351.467L354.978 348.467V368.511H301.778V346.444L292 354.978L296.245 346.444L290.222 317.4L286.2 317.889C286.2 310.4 279.2 307.378 279.2 307.378C279.2 307.378 280.2 302.378 276.178 302.378C272.178 302.378 274.178 308.867 274.178 308.867C269.156 308.867 266.667 319.4 266.667 319.4H263.667L258.156 344.2L261.156 354.978L251.645 346.444V362.489H243.622V357.467H239.6V368L234.6 363.489V396.555L240.6 402.578V438.111L235.289 445.689H227.556V455.711H220.578V468.733H210.533V488.755H199.533V508.8H188.489L187.489 530.822H610.489L611.489 508.8L600.467 508.822Z" fill="white"/>
<path d="M257.689 397.089V435.644H239.622L235.311 444.044H257.689V530.867H265.289V397.089H257.689ZM562.822 444.044L558.867 435.644H542.511V397.089H535V530.867H542.511V444.044H562.822ZM380.111 397.089V435.644H298.067V396.867H290.733V530.644H298.067V444.044H380.111V530.867H387.955V397.089H380.111ZM500.244 397.089V435.644H420.267V397.089H412.511V530.867H420.267V444.044H500.244V530.867H509.733V397.089H500.244Z" fill="#DB7F86"/>
</svg>
