<svg width="800" height="800" viewBox="0 0 800 800" fill="none" xmlns="http://www.w3.org/2000/svg">
<path d="M800 600C800 623.575 790.635 646.184 773.965 662.854C757.295 679.524 734.686 688.889 711.111 688.889H88.8889C65.3141 688.889 42.7049 679.524 26.035 662.854C9.36505 646.184 0 623.575 0 600V200C0 176.425 9.36505 153.816 26.035 137.146C42.7049 120.476 65.3141 111.111 88.8889 111.111H711.111C734.686 111.111 757.295 120.476 773.965 137.146C790.635 153.816 800 176.425 800 200V600Z" fill="#006600"/>
<path d="M711.111 111.111H333.333V688.889H711.111C734.686 688.889 757.295 679.524 773.965 662.854C790.635 646.184 800 623.575 800 600V200C800 176.425 790.635 153.816 773.965 137.146C757.295 120.476 734.686 111.111 711.111 111.111Z" fill="#D52B1E"/>
<path d="M333.333 222.222C286.184 222.222 240.965 240.952 207.626 274.292C174.286 307.632 155.556 352.85 155.556 400C155.556 447.15 174.286 492.368 207.626 525.708C240.965 559.048 286.184 577.778 333.333 577.778C380.483 577.778 425.702 559.048 459.041 525.708C492.381 492.368 511.111 447.15 511.111 400C511.111 352.85 492.381 307.632 459.041 274.292C425.702 240.952 380.483 222.222 333.333 222.222ZM197.489 324.311L233.089 359.911L178.422 387.244C180.187 365.141 186.689 343.677 197.489 324.311ZM178.422 412.733L276.2 461.778L216.067 501.867L216.378 502.333C194.42 477.325 181.109 445.905 178.422 412.733ZM311.111 553.778C290.74 550.871 271.156 543.92 253.511 533.333H311.111V553.778ZM311.111 511.111H242.245L311.111 465.2V511.111ZM311.111 438.489L297.622 447.489L202.622 400L249.645 376.489L311.111 437.933V438.489ZM311.111 406.511L232.378 327.778L311.111 340.889V406.511ZM311.111 317.8L212.622 301.956C237.266 271.643 272.436 251.74 311.111 246.222V317.8ZM469.178 324.311C479.98 343.684 486.483 365.156 488.245 387.267L433.578 359.933L469.178 324.311ZM355.556 246.222C394.228 251.749 429.395 271.649 454.045 301.956L355.556 317.8V246.222ZM355.556 340.889L434.289 327.755L355.556 406.511V340.889ZM355.556 437.933L417 376.489L464.045 400L369.067 447.489L355.556 438.489V437.933ZM355.556 553.778V533.333H413.156C395.511 543.92 375.927 550.871 355.556 553.778ZM355.556 511.111V465.2L424.422 511.111H355.556ZM450.311 502.333L450.622 501.867L390.489 461.778L488.267 412.733C485.559 445.9 472.252 477.314 450.311 502.333Z" fill="#FFCC4D"/>
<path d="M244.444 288.889V444.444C244.444 468.019 253.809 490.628 270.479 507.298C287.149 523.968 309.758 533.333 333.333 533.333C356.908 533.333 379.517 523.968 396.187 507.298C412.857 490.628 422.222 468.019 422.222 444.444V288.889H244.444Z" fill="#D52B1E"/>
<path d="M266.667 311.111V444.444C266.667 462.126 273.691 479.082 286.193 491.585C298.695 504.087 315.652 511.111 333.333 511.111C351.015 511.111 367.971 504.087 380.474 491.585C392.976 479.082 400 462.126 400 444.444V311.111H266.667Z" fill="white"/>
<path d="M288.889 377.778H377.778V422.222H288.889V377.778Z" fill="#829ACD"/>
<path d="M311.111 355.556H355.556V444.445H311.111V355.556Z" fill="#829ACD"/>
<path d="M266.667 377.778H288.889V422.222H266.667V377.778ZM311.111 377.778H355.556V422.222H311.111V377.778ZM377.778 377.778H400V422.222H377.778V377.778ZM311.111 444.444H355.556V488.889H311.111V444.444ZM311.111 311.111H355.556V355.556H311.111V311.111Z" fill="#003399"/>
</svg>
