<svg width="48" height="48" viewBox="0 0 48 48" fill="none" xmlns="http://www.w3.org/2000/svg">
<path d="M48 35.9998C48 37.4143 47.4381 38.7709 46.4379 39.7711C45.4377 40.7713 44.0812 41.3332 42.6667 41.3332H5.33333C3.91885 41.3332 2.56229 40.7713 1.5621 39.7711C0.561903 38.7709 0 37.4143 0 35.9998V11.9998C0 10.5853 0.561903 9.22879 1.5621 8.2286C2.56229 7.22841 3.91885 6.6665 5.33333 6.6665H42.6667C44.0812 6.6665 45.4377 7.22841 46.4379 8.2286C47.4381 9.22879 48 10.5853 48 11.9998V35.9998Z" fill="#009B3A"/>
<path d="M43.6379 23.9998L24.0006 38.8318L4.36328 23.9998L24.0006 9.1665L43.6379 23.9998Z" fill="#FEDF01"/>
<path d="M23.97 32.5089C28.7256 32.5089 32.5807 28.6538 32.5807 23.8983C32.5807 19.1427 28.7256 15.2876 23.97 15.2876C19.2145 15.2876 15.3594 19.1427 15.3594 23.8983C15.3594 28.6538 19.2145 32.5089 23.97 32.5089Z" fill="#002776"/>
<path d="M16.3687 19.8493C15.9214 20.692 15.6186 21.6038 15.4727 22.5466C20.7993 22.1599 28.0287 25.0679 31.1313 28.6733C31.6673 27.8679 32.0647 26.9666 32.3087 26.0013C28.4793 22.2573 21.7527 19.8279 16.3687 19.8493Z" fill="#CBE9D4"/>
<path d="M16 24.3105H17.3333V25.6439H16V24.3105ZM17.3333 26.9772H18.6667V28.3105H17.3333V26.9772Z" fill="#88C9F9"/>
<path d="M20 24.3102H21.3333V25.6436H20V24.3102ZM22.6667 25.6436H24V26.9769H22.6667V25.6436ZM28 28.3102H29.3333V29.6436H28V28.3102ZM24 29.6436H25.3333V30.9769H24V29.6436ZM28 21.6436H29.3333V22.9769H28V21.6436Z" fill="#55ACEE"/>
<path d="M25.332 26.9771H26.6654V28.3104H25.332V26.9771Z" fill="#3B88C3"/>
</svg>
