<svg width="800" height="800" viewBox="0 0 800 800" fill="none" xmlns="http://www.w3.org/2000/svg">
<path d="M711.111 111.111H88.8889C65.3141 111.111 42.7049 120.476 26.035 137.146C9.36505 153.816 0 176.425 0 200L0 400H800V200C800 176.425 790.635 153.816 773.965 137.146C757.295 120.476 734.686 111.111 711.111 111.111Z" fill="#FBD116"/>
<path d="M0 400H800V555.556H0V400Z" fill="#22408C"/>
<path d="M0 600C0 623.575 9.36505 646.184 26.035 662.854C42.7049 679.524 65.3141 688.889 88.8889 688.889H711.111C734.686 688.889 757.295 679.524 773.965 662.854C790.635 646.184 800 623.575 800 600V555.556H0V600Z" fill="#CE2028"/>
</svg>
