<svg width="800" height="800" viewBox="0 0 800 800" fill="none" xmlns="http://www.w3.org/2000/svg">
<path d="M0 201.311V288.889H125.067L0 201.311ZM103.644 688.889H288.889V559.178L103.644 688.889ZM511.111 559.2V688.889H696.333L511.111 559.2ZM0 511.111V598.689L125.111 511.111H0ZM696.378 111.111H511.111V240.822L696.378 111.111ZM800 598.711V511.111H674.867L800 598.711ZM800 288.889V201.311L674.911 288.889H800ZM288.889 111.111H103.644L288.889 240.822V111.111Z" fill="#00247D"/>
<path d="M558.667 511.111L774.489 662.244C785.029 651.386 792.604 638.003 796.489 623.378L636.156 511.111H558.667ZM288.889 511.111H241.311L25.5112 662.222C37.089 674 51.9335 682.422 68.5779 686.333L288.889 532.067V511.111ZM511.111 288.889H558.689L774.489 137.778C762.712 125.828 747.786 117.467 731.445 113.667L511.111 267.933V288.889ZM241.311 288.889L25.5112 137.778C14.9769 148.644 7.396 162.023 3.48901 176.645L163.822 288.889H241.311Z" fill="#CF1B2B"/>
<path d="M800 466.667H466.667V688.889H511.111V559.2L696.333 688.889H711.111C722.917 688.891 734.604 686.535 745.488 681.959C756.371 677.384 766.231 670.681 774.489 662.244L558.667 511.111H636.156L796.489 623.378C798.556 615.889 800 608.133 800 600V598.711L674.867 511.111H800V466.667ZM0 466.667V511.111H125.111L0 598.689V600C0 624.244 9.75556 646.178 25.5111 662.222L241.311 511.111H288.889V532.067L68.5778 686.311C75.1111 687.867 81.8667 688.889 88.8889 688.889H103.644L288.889 559.178V688.889H333.333V466.667H0ZM800 200C800.013 176.711 790.847 154.354 774.489 137.778L558.689 288.889H511.111V267.933L731.444 113.667C724.788 112.034 717.965 111.176 711.111 111.111H696.378L511.111 240.822V111.111H466.667V333.333H800V288.889H674.911L800 201.311V200ZM288.889 111.111V240.822L103.644 111.111H88.8889C77.0805 111.106 65.3903 113.462 54.5062 118.042C43.622 122.622 33.7636 129.332 25.5111 137.778L241.311 288.889H163.822L3.48889 176.644C1.284 184.238 0.11052 192.094 0 200L0 201.311L125.067 288.889H0V333.333H333.333V111.111H288.889Z" fill="#EEEEEE"/>
<path d="M466.667 333.333V111.111H333.333V333.333H0V466.667H333.333V688.889H466.667V466.667H800V333.333H466.667Z" fill="#CF1B2B"/>
</svg>
