<svg width="800" height="800" viewBox="0 0 800 800" fill="none" xmlns="http://www.w3.org/2000/svg">
<path d="M711.111 111.111H88.8889C65.3141 111.111 42.7049 120.476 26.035 137.146C9.36505 153.816 0 176.425 0 200L0 333.333H800V200C800 176.425 790.635 153.816 773.965 137.146C757.295 120.476 734.686 111.111 711.111 111.111ZM711.111 688.889H88.8889C65.3141 688.889 42.7049 679.524 26.035 662.854C9.36505 646.184 0 623.575 0 600V466.667H800V600C800 623.575 790.635 646.184 773.965 662.854C757.295 679.524 734.686 688.889 711.111 688.889Z" fill="#9E3039"/>
<path d="M0 333.333H800V466.667H0V333.333Z" fill="#EEEEEE"/>
</svg>
